<svg width="320" height="232" viewBox="0 0 320 232" fill="none" xmlns="http://www.w3.org/2000/svg">
<mask id="mask0_340_5" style="mask-type:alpha" maskUnits="userSpaceOnUse" x="0" y="0" width="320" height="232">
<rect width="320" height="232" fill="#D9D9D9"/>
</mask>
<g mask="url(#mask0_340_5)">
<circle cx="186" cy="143" r="108" stroke="#F4E07C" stroke-width="22"/>
<circle cx="186" cy="140" r="127" stroke="#EFD161" stroke-width="22"/>
<path d="M274 145C274 193.654 234.772 233 186.5 233C138.228 233 99 193.654 99 145C99 96.3464 138.228 57 186.5 57C234.772 57 274 96.3464 274 145Z" stroke="white" stroke-width="22"/>
<path d="M669 94.2778C669 94.2778 613.93 80.1844 579.759 100.841C545.589 121.498 510.049 108.528 485.17 140.816C460.29 173.105 430.778 163.889 385.828 154.858C340.878 145.827 324.763 156.964 310.782 170.934C296.801 184.9 278.068 125.893 219.903 139.179C161.738 152.465 179.774 111.161 128.107 104.536C76.4395 97.911 50.5368 127.237 22.261 98.9366C-6.01472 70.6357 -28 73.0514 -28 73.0514V285H668.994V94.2778H669Z" fill="#436DEA"/>
<path d="M641 117.307C641 117.307 589.881 103.194 558.161 123.879C526.442 144.564 493.452 131.576 470.357 163.91C447.262 196.243 419.867 187.014 378.142 177.97C336.416 168.927 321.457 180.079 308.479 194.068C295.501 208.054 278.111 148.965 224.119 162.27C170.127 175.574 186.869 134.214 138.908 127.579C90.9474 120.945 66.9029 150.312 40.6555 121.972C14.4081 93.6325 -6 96.0514 -6 96.0514L-6 1663.5H640.994V117.307H641Z" fill="#1F45F5"/>
</g>
</svg>
