<svg width="1920" height="924" viewBox="0 0 1920 924" fill="none" xmlns="http://www.w3.org/2000/svg">
<circle cx="1219.5" cy="353.5" r="235.5" stroke="#F4E07C" stroke-width="50"/>
<circle cx="1219" cy="346" r="277" stroke="#EFD161" stroke-width="50"/>
<circle cx="1220" cy="357" r="191" stroke="white" stroke-width="50"/>
<path d="M2007 65.3389C2007 65.3389 1838 22.0614 1733.13 85.4931C1628.27 148.925 1519.2 109.096 1442.85 208.248C1366.5 307.399 1275.93 279.097 1137.98 251.365C1000.04 223.633 950.582 257.833 907.676 300.731C864.771 343.619 807.28 162.421 628.78 203.219C450.279 244.017 505.631 117.184 347.071 96.8398C188.511 76.4957 109.019 166.55 22.2444 79.6448C-64.5301 -7.26014 -132 0.157728 -132 0.157728V651H2006.98V65.3389H2007Z" fill="#436DEA"/>
<path d="M1920 136.339C1920 136.339 1763.32 93.0614 1666.11 156.493C1568.89 219.925 1467.78 180.096 1396.99 279.248C1326.21 378.399 1242.25 350.097 1114.36 322.365C986.477 294.633 940.628 328.833 900.851 371.731C861.075 414.619 807.777 233.421 642.295 274.219C476.813 315.017 528.128 188.184 381.132 167.84C234.136 147.496 160.441 237.55 79.9952 150.645C-0.450783 63.7399 -63 71.1577 -63 71.1577V923.5H1919.98V136.339H1920Z" fill="#1F45F5"/>
</svg>
