<?xml version="1.0" encoding="utf-8"?>
<!-- Generator: Adobe Illustrator 25.4.1, SVG Export Plug-In . SVG Version: 6.00 Build 0)  -->
<svg version="1.1" id="Слой_1" xmlns="http://www.w3.org/2000/svg" xmlns:xlink="http://www.w3.org/1999/xlink" x="0px" y="0px"
	 viewBox="0 0 771.6 478.9" enable-background="new 0 0 771.6 478.9" xml:space="preserve">
<path fill="#436BEB" d="M125.8,149.6c0,0-8.2-27.3,8.4-36.2C165.9,96.3,333.5,64,416.7,84.1c15.7,3.9,15.9,33.7,15.9,33.7
	L125.8,149.6z"/>
<path fill="#436BEB" d="M410.8,437.3c0,0,4.6,16.4-5.3,21.6c-19.1,9.9-119.4,27.6-168.9,14.9c-9.3-2.5-9.2-20.3-9.2-20.3
	L410.8,437.3z"/>
<ellipse fill="#6FA5F3" cx="653.6" cy="70" rx="15" ry="15"/>
<ellipse fill="#6698E0" cx="657.1" cy="67" rx="9.5" ry="10"/>
<circle fill="#6FA5F3" cx="691.1" cy="8.5" r="8.5"/>
<circle fill="#6698E0" cx="693.1" cy="6.5" r="4.5"/>
<ellipse fill="#6FA5F3" cx="699.6" cy="93" rx="8" ry="8"/>
<circle fill="#6698E0" cx="702.1" cy="91.5" r="4.5"/>
<path fill="#EABB5A" d="M684,260c-5.4,29.6-15.8,80.8-4.3,95.8c11.5,15,42.7,7.9,46.1-6.4c5.2-21.6-21.2-75.7-28.1-91.3
	C687.6,259.5,684,260,684,260z"/>
<path fill="#EABB5A" d="M695.7,234.5c5.4-29.6,15.8-80.8,4.3-95.8c-11.5-15-42.7-7.9-46.1,6.4c-5.2,21.6,21.2,75.7,28.1,91.3
	C692.1,235,695.7,234.5,695.7,234.5z"/>
<path fill="#436BEB" d="M571.9,210.6c0,0,72.7-15.2,82.5-1.5c9.8,13.7,21.1,71.9,6.4,89.5c-12.9,15.5-81.7,15.7-81.7,15.7
	L571.9,210.6z"/>
<path fill="#436BEB" d="M661.3,220.6c13.2-1.9,40.9-7.4,49-1.6c8,5.7,13.4,41.8,3.4,52.1c-6.7,6.9-32.1,8.8-44,9.2
	c-6.7,0.2-7.1-6-7.1-6l-6.5-47.3C656.1,227,655,221.6,661.3,220.6z"/>
<path fill="#436BEB" d="M549.3,206.2c2.9-12.2,7-34.1,10.1-49.7c2-9.8,7.5-13,12-13.6c10.2-1.4,29.9-4.1,39.4-5.4
	c12.5-1.7,11.6,5.3,12.2,13.9c0.4,4.7,0.4,14-0.3,19.5c-1,6.9-4.7,11.1-14.3,12.4c-7,1-14,1.9-21.4,3c-8.2,1.1-7.9,6-9.6,12.3
	c-2,7.4-2.4,16.2-2.9,20.7C565.4,213.9,549.3,206.2,549.3,206.2z"/>
<path fill="#436BEB" d="M571,323.6c6.1,10.9,16,31,23.2,45.1c4.5,8.9,10.7,10.5,15.3,9.9c10.2-1.4,29.9-4.1,39.4-5.4
	c12.5-1.7,9.7-8.2,8-16.7c-0.9-4.6-3.4-13.6-5.6-18.7c-2.8-6.4-7.5-9.4-17.1-8c-7,1-14,1.9-21.4,3c-8.2,1.1-9.2-3.6-12.6-9.2
	c-3.9-6.6-6.7-14.9-8.4-19.1C584.4,311.8,571,323.6,571,323.6z"/>
<circle fill="#1F45F5" cx="219.8" cy="270.7" r="41.3"/>
<circle fill="#1F45F5" cx="405" cy="255.4" r="41.3"/>
<path fill="#6FA5F3" d="M152.7,135.8l268.2-24.5c92.4-8.4,174.1,59.6,182.6,152l0.2,1.8c8.4,92.4-59.6,174.1-152,182.6l-268.2,24.5
	C91,480.7,9.3,412.6,0.9,320.2l-0.2-1.8C-7.7,226,60.3,144.3,152.7,135.8z"/>
<path fill="#6698E0" d="M567.6,214.5c14,45,34.3,91-13.5,92c-47.8,1-29.3-77-61.7-122.3c-19.6-27.3-67.6-38.5-19.8-39.5
	C520.3,143.7,542.1,169.2,567.6,214.5z"/>
<path fill="#436BEB" d="M348.8,264.2c0,79.5,85,162.8-69.6,184.6C66.9,491.4,13.8,383.3,13.8,303.8c0-55.3,16.9-163.2,242.9-170.3
	C400.5,133.5,348.8,184.7,348.8,264.2z"/>
<path fill-opacity="0.13" d="M253.6,432.5c-82,12.7-147.2-20.2-208-34c6.5,10.8,28.8,36.1,66,50.5c46.5,18,93.5,8,168,0
	s78-31,89-45.5c8.8-11.6,2-42.2-2.5-56C362.6,403.5,360.3,415.9,253.6,432.5z"/>
<path fill-opacity="8.000000e-02" d="M564.8,390.5c1-2.1-220.6,65-424.8,88.4c104-8.8,317.2-27.8,338.3-33.2
	C504.6,439,563.5,393.1,564.8,390.5z"/>
<path fill-opacity="0.11" d="M604.6,291c-0.3,3.8-2.5,16.6-3,22.5c8.6-1.2,32.4-4.4,45.5-7.4c16.4-3.8,16-11.4,13.1-10.7
	C657.2,296.2,605,286.3,604.6,291z"/>
<path fill="#D9AD52" d="M219.6,175.2L219.6,175.2c3.4,0.7,5.7,4,5,7.4l-6,30.3c-0.7,3.4-4,5.7-7.4,5h0c-3.4-0.7-5.7-4-5-7.4l6-30.3
	C212.9,176.7,216.2,174.5,219.6,175.2z"/>
<path fill="#D9AD52" d="M234.1,182.1L234.1,182.1c3.4,0.7,5.7,4,5,7.4l-6,30.3c-0.7,3.4-4,5.7-7.4,5l0,0c-3.4-0.7-5.7-4-5-7.4
	l6-30.3C227.3,183.6,230.6,181.4,234.1,182.1z"/>
<ellipse fill="#EABB5A" cx="221.5" cy="324.3" rx="115.5" ry="115.5"/>
<path fill="#D9AD52" d="M337.1,324c0,64-52,115.5-117,115.5c-13.5,0,91.2,4,91.2-105s-152.5-125.8-89.1-125.8S337.1,260,337.1,324z"
	/>
<ellipse fill="#FFFFFF" cx="189.3" cy="263" rx="29" ry="29"/>
<ellipse fill="#FFFFFF" cx="239.3" cy="263" rx="30" ry="29"/>
<ellipse fill="#FFFFFF" cx="214.3" cy="310" rx="37" ry="38"/>
<path fill="#1F45F5" d="M331,282.3c6.2-4.6,10.4-11.5,11.6-19.1c1.2-7.7-0.8-15.5-5.4-21.7c-4.6-6.2-11.5-10.4-19.1-11.6
	c-7.7-1.2-15.5,0.8-21.7,5.4l17.3,23.5L331,282.3z"/>
<path fill="#1F45F5" d="M111.2,280.5c-6.2-4.6-10.4-11.5-11.6-19.1c-1.2-7.7,0.8-15.5,5.4-21.7c4.6-6.2,11.5-10.4,19.1-11.6
	c7.7-1.2,15.5,0.8,21.7,5.4L128.5,257L111.2,280.5z"/>
<path fill="#6FA5F3" d="M293.1,229.6L293.1,229.6c3.1-1.9,7.1-0.9,8.9,2.1l30.2,49.3c1.9,3.1,0.9,7.1-2.1,8.9l0,0
	c-3.1,1.9-7.1,0.9-8.9-2.1L291,238.5C289.1,235.5,290.1,231.5,293.1,229.6z"/>
<path fill="#6FA5F3" d="M149.1,227.8L149.1,227.8c-3.1-1.9-7.1-0.9-8.9,2.1L110,279.2c-1.9,3.1-0.9,7.1,2.1,8.9l0,0
	c3.1,1.9,7.1,0.9,8.9-2.1l30.2-49.3C153.1,233.6,152.1,229.6,149.1,227.8z"/>
<path fill="none" stroke="#6FA5F3" stroke-width="3" stroke-linecap="round" d="M148.2,230.8c7.9-21.7,38.1-72.1,76.1-75.2
	c55.9-4.6,65.1,55,70.6,75.2"/>
<path fill="none" stroke="#000000" stroke-width="5" stroke-linecap="round" d="M195.3,316c0,0,6.9,10,19.4,10
	c12.6,0,20.6-10,20.6-10"/>
<path fill="none" stroke="#000000" stroke-width="5" stroke-linecap="round" d="M177.3,260c0,0,4.6,7,13.1,7c8.5,0,13.9-7,13.9-7"/>
<path fill="none" stroke="#000000" stroke-width="5" stroke-linecap="round" d="M225.3,260c0,0,4.8,7,13.6,7c8.8,0,14.4-7,14.4-7"/>
<path fill="#3A5DCC" d="M44.6,297l17.5-2l52.5,100.5l-15.5,2L44.6,297z"/>
<path fill="#6FA5F3" d="M59.1,294h15l35.5,81.5v10L59.1,294z"/>
<path fill="none" stroke="#FFDE9A" stroke-width="6" stroke-linecap="round" d="M285.6,334.5c-0.7,18-11,48.6-38.5,54.5
	c-35.7,7.7-48.5-18-65.5-22.5c-13.6-3.6-25.3,6.2-29.5,11.5"/>
<path fill="#3A5DCC" d="M96.2,398.3l8.7-15.3l72.7,9.6l-7.5,13.7L96.2,398.3z"/>
<path fill="#436BEB" d="M108.2,383.7l1.4-7.7l61.5,11.5l6.5,5L108.2,383.7z"/>
</svg>
