<svg width="132" height="101" viewBox="0 0 132 101" fill="none" xmlns="http://www.w3.org/2000/svg">
<rect width="3.66836" height="12.6235" rx="1.83418" transform="matrix(-0.981099 0.193508 0.193508 0.981099 93.0018 17.5072)" fill="#D9AD52"/>
<rect width="3.66836" height="12.6235" rx="1.83418" transform="matrix(-0.981099 0.193508 0.193508 0.981099 88.8215 19.5024)" fill="#D9AD52"/>
<ellipse rx="33.4852" ry="33.4852" transform="matrix(-1 -5.71919e-09 -5.71919e-09 1 90.6613 61.091)" fill="#EABB5A"/>
<path d="M57.1416 61.0094C57.1416 79.5585 72.2173 94.4949 91.0619 94.4949C94.9665 94.4949 64.6171 95.6546 64.6171 64.0643C64.6171 32.4741 108.816 27.6058 90.4429 27.6058C72.07 27.6058 57.1416 42.4604 57.1416 61.0094Z" fill="#D9AD52"/>
<ellipse rx="8.4076" ry="8.4076" transform="matrix(-1 -5.71919e-09 -5.71919e-09 1 73.2266 44.3523)" fill="white"/>
<path d="M70.4603 60.1053C73.5025 54.836 75.1941 51.9302 70.0635 48.968C64.9329 46.0058 58.3075 47.8761 55.2653 53.1454C52.223 58.4147 53.916 65.0876 59.0466 68.0497C64.1773 71.0119 67.4181 65.3746 70.4603 60.1053Z" fill="white"/>
<path d="M61.4771 57.7332C61.4771 57.7332 58.2445 58.5227 55.7757 56.2361C53.307 53.9496 56.4378 56.7677 56.4378 56.7677" stroke="black" stroke-width="2" stroke-linecap="round"/>
<path d="M77.1906 44.4595C77.1906 44.4595 74.9981 45.5765 72.7574 44.3566C70.5167 43.1367 70.061 40.5779 70.061 40.5779" stroke="black" stroke-width="2" stroke-linecap="round"/>
<path d="M94.6797 66.9412C85.3213 75.5915 64.8352 85.6677 48.1349 74.8393C26.4648 60.7883 32.9521 41.5351 26.7232 30.7647C21.74 22.1483 10.9861 21.1398 6.23209 21.7126" stroke="#FFF5D0" stroke-width="6" stroke-linecap="round"/>
</svg>
