<svg width="638" height="340" viewBox="0 0 638 340" fill="none" xmlns="http://www.w3.org/2000/svg">
<ellipse cx="308.543" cy="314.766" rx="103.228" ry="14.972" fill="#3A5DCC"/>
<rect x="293.259" y="13.0259" width="14.3407" height="49.3487" rx="7.17033" transform="rotate(11.1576 293.259 13.0259)" fill="#D9AD52"/>
<rect x="309.6" y="20.8263" width="14.3407" height="49.3487" rx="7.17033" transform="rotate(11.1576 309.6 20.8263)" fill="#D9AD52"/>
<ellipse cx="302.409" cy="183.408" rx="130.903" ry="130.903" fill="#EABB5A"/>
<path d="M433.446 183.089C433.446 255.602 374.511 313.993 300.842 313.993C285.578 313.993 404.222 318.526 404.222 195.031C404.222 71.5359 231.438 52.5044 303.262 52.5044C375.087 52.5044 433.446 110.575 433.446 183.089Z" fill="#D9AD52"/>
<ellipse cx="265.939" cy="113.953" rx="32.8677" ry="32.8677" fill="white"/>
<ellipse cx="322.608" cy="113.953" rx="34.0011" ry="32.8677" fill="white"/>
<ellipse cx="294.275" cy="167.222" rx="41.9346" ry="43.068" fill="white"/>
<path d="M285.507 177.894C285.507 177.894 289.083 183.384 295.64 183.384C302.198 183.384 306.371 177.894 306.371 177.894" stroke="black" stroke-width="5" stroke-linecap="round"/>
<path d="M252.34 110.553C252.34 110.553 257.585 118.486 267.203 118.486C276.82 118.486 282.941 110.553 282.941 110.553" stroke="black" stroke-width="5" stroke-linecap="round"/>
<path d="M306.74 110.553C306.74 110.553 312.18 118.486 322.153 118.486C332.127 118.486 338.475 110.553 338.475 110.553" stroke="black" stroke-width="5" stroke-linecap="round"/>
<path d="M381.038 154.448C394.434 203.304 373.214 206.302 359.762 230.533C333.758 277.376 330.081 222.128 323.514 230.533" stroke="#FFDE9A" stroke-width="6" stroke-linecap="round"/>
<path d="M215.886 154.448C202.49 203.304 223.711 206.302 237.162 230.533C263.166 277.376 266.844 222.128 273.41 230.533" stroke="#FFDE9A" stroke-width="6" stroke-linecap="round"/>
<path d="M359.763 288.408H228.955L203.739 214.336H386.555L359.763 288.408Z" fill="#3A5DCC"/>
<circle cx="289.631" cy="246.998" r="7.09198" fill="#6FA5F3"/>
<circle cx="302.239" cy="246.998" r="7.09198" fill="#6FA5F3"/>
<circle cx="295.935" cy="258.03" r="8.66798" fill="#6FA5F3"/>
<rect x="228.955" y="288.408" width="130.808" height="11.032" fill="#6FA5F3"/>
<path d="M137.458 259.071C138.563 259.071 139.458 259.966 139.458 261.071V262.681C139.458 263.786 138.563 264.681 137.458 264.681H133.808C132.704 264.681 131.808 265.576 131.808 266.681V270.331C131.808 271.436 130.913 272.331 129.808 272.331H128.198C127.093 272.331 126.198 271.436 126.198 270.331V266.681C126.198 265.576 125.303 264.681 124.198 264.681H120.594C119.49 264.681 118.594 263.786 118.594 262.681V261.071C118.594 259.966 119.49 259.071 120.594 259.071H124.198C125.303 259.071 126.198 258.175 126.198 257.071V253.467C126.198 252.362 127.093 251.467 128.198 251.467H129.808C130.913 251.467 131.808 252.362 131.808 253.467V257.071C131.808 258.175 132.704 259.071 133.808 259.071H137.458Z" fill="white" fill-opacity="0.44"/>
<path d="M179.186 49.5369C180.291 49.5369 181.186 50.4323 181.186 51.5369V54.9186C181.186 56.0232 180.291 56.9187 179.186 56.9187H173.12C172.016 56.9187 171.12 57.8141 171.12 58.9187V64.9847C171.12 66.0892 170.225 66.9847 169.12 66.9847H165.739C164.634 66.9847 163.739 66.0892 163.739 64.9847V58.9186C163.739 57.8141 162.843 56.9187 161.739 56.9187H155.734C154.629 56.9187 153.734 56.0232 153.734 54.9187V51.5369C153.734 50.4324 154.629 49.5369 155.734 49.5369H161.739C162.843 49.5369 163.739 48.6415 163.739 47.5369V41.5319C163.739 40.4274 164.634 39.5319 165.739 39.5319H169.12C170.225 39.5319 171.12 40.4274 171.12 41.5319V47.5369C171.12 48.6415 172.016 49.5369 173.12 49.5369H179.186Z" fill="white" fill-opacity="0.44"/>
<path d="M409.789 18.7801C410.894 18.7801 411.789 19.6755 411.789 20.7801V20.9139C411.789 22.0184 410.894 22.9139 409.789 22.9139H408.152C407.048 22.9139 406.152 23.8093 406.152 24.9139V26.5508C406.152 27.6554 405.257 28.5508 404.152 28.5508H404.019C402.914 28.5508 402.019 27.6554 402.019 26.5508V24.9139C402.019 23.8093 401.123 22.9139 400.019 22.9139H398.416C397.311 22.9139 396.416 22.0184 396.416 20.9139V20.7801C396.416 19.6755 397.311 18.7801 398.416 18.7801H400.019C401.123 18.7801 402.019 17.8847 402.019 16.7801V15.1773C402.019 14.0727 402.914 13.1773 404.019 13.1773H404.152C405.257 13.1773 406.152 14.0727 406.152 15.1773V16.7801C406.152 17.8847 407.048 18.7801 408.152 18.7801H409.789Z" fill="white" fill-opacity="0.44"/>
<ellipse cx="63.6887" cy="214.131" rx="45.0225" ry="6.58866" fill="#3A5DCC"/>
<ellipse cx="65.6077" cy="158.422" rx="55.0725" ry="55.0725" fill="#EABB5A"/>
<path d="M120.737 158.288C120.737 188.795 95.9421 213.361 64.9487 213.361C58.5268 213.361 108.442 215.268 108.442 163.312C108.442 111.356 35.7493 103.349 65.9668 103.349C96.1843 103.349 120.737 127.78 120.737 158.288Z" fill="#D9AD52"/>
<ellipse cx="50.2646" cy="129.201" rx="13.8278" ry="13.8278" fill="white"/>
<ellipse cx="74.1057" cy="129.201" rx="14.3047" ry="13.8278" fill="white"/>
<ellipse cx="62.1856" cy="151.612" rx="17.6424" ry="18.1192" fill="white"/>
<path d="M57.1001 154.833C57.1001 154.833 58.9823 157.03 62.4335 157.03C65.8847 157.03 68.0812 154.833 68.0812 154.833" stroke="black" stroke-width="2" stroke-linecap="round"/>
<path d="M79.0625 131.224C79.0625 131.224 77.4153 129.028 74.121 129.028C70.8267 129.028 69.1795 130.675 69.1795 130.675" stroke="black" stroke-width="2" stroke-linecap="round"/>
<path d="M54.9041 131.224C54.9041 131.224 53.2569 129.028 49.9626 129.028C46.6682 129.028 45.0211 130.675 45.0211 130.675" stroke="black" stroke-width="2" stroke-linecap="round"/>
<mask id="mask0_175_93" style="mask-type:alpha" maskUnits="userSpaceOnUse" x="10" y="103" width="112" height="111">
<ellipse cx="66.052" cy="158.295" rx="55.0725" ry="55.0725" fill="#EABB5A"/>
</mask>
<g mask="url(#mask0_175_93)">
<path d="M49.869 177.842L11.5309 174.733C10.5739 174.656 9.69693 175.268 9.44105 176.194C7.88075 181.837 5.3388 190.973 4.93993 192.169C4.39088 193.816 19.2154 223.465 19.2154 224.563C19.2154 225.431 78.7913 216.737 109.721 212.113C110.462 212.002 111.059 211.489 111.299 210.779L122.093 178.888C122.532 177.591 121.575 176.247 120.206 176.247H73.0227C72.2435 176.247 66.5113 182.006 62.799 185.862C62.0627 186.627 60.8596 186.69 60.0507 186.002L51.0026 178.311C50.6833 178.04 50.2867 177.876 49.869 177.842Z" fill="white"/>
</g>
<circle cx="62.0417" cy="192.718" r="1.64716" fill="black"/>
<circle cx="62.0417" cy="201.503" r="1.64716" fill="black"/>
<path d="M116.808 134.767C119.682 132.648 121.598 129.474 122.133 125.944C122.667 122.413 121.778 118.814 119.659 115.94C117.541 113.065 114.367 111.15 110.836 110.615C107.306 110.08 103.707 110.97 100.832 113.088L108.82 123.927L116.808 134.767Z" fill="#1F45F5"/>
<path d="M15.5003 133.922C12.6255 131.803 10.7101 128.629 10.1753 125.099C9.64048 121.568 10.5302 117.969 12.6486 115.095C14.7671 112.22 17.9407 110.305 21.4715 109.77C25.0022 109.235 28.6007 110.125 31.4755 112.243L23.4879 123.082L15.5003 133.922Z" fill="#1F45F5"/>
<rect x="96.7974" y="112.034" width="5.9817" height="32.6269" rx="2.99085" transform="rotate(-31.4948 96.7974 112.034)" fill="#6FA5F3"/>
<rect width="5.9817" height="32.6269" rx="2.99085" transform="matrix(-0.852688 -0.522421 -0.522421 0.852688 35.5107 111.189)" fill="#6FA5F3"/>
<path d="M31.8438 110.909C35.5316 100.801 49.5191 77.3377 67.1615 75.8862C93.1178 73.7507 97.3734 101.513 99.9265 110.909" stroke="#6FA5F3" stroke-width="3" stroke-linecap="round"/>
<ellipse cx="563.329" cy="214.131" rx="45.0225" ry="6.58866" fill="#3A5DCC"/>
<rect x="560.3" y="86.7402" width="6.03328" height="20.7616" rx="3.01664" transform="rotate(11.1576 560.3 86.7402)" fill="#D9AD52"/>
<rect x="567.175" y="90.022" width="6.03328" height="20.7616" rx="3.01664" transform="rotate(11.1576 567.175 90.022)" fill="#D9AD52"/>
<ellipse cx="564.149" cy="158.422" rx="55.0725" ry="55.0725" fill="#EABB5A"/>
<path d="M619.278 158.288C619.278 188.795 594.483 213.361 563.49 213.361C557.068 213.361 606.983 215.268 606.983 163.312C606.983 111.356 534.291 103.349 564.508 103.349C594.726 103.349 619.278 127.78 619.278 158.288Z" fill="#D9AD52"/>
<circle cx="549.602" cy="129.028" r="11.5301" fill="white"/>
<circle cx="569.368" cy="129.028" r="11.5301" fill="white"/>
<circle cx="559.485" cy="147.696" r="14.8245" fill="white"/>
<path d="M555.642 150.441C555.642 150.441 557.148 151.539 559.909 151.539C562.67 151.539 564.427 150.441 564.427 150.441" stroke="black" stroke-width="2" stroke-linecap="round"/>
<path d="M545.759 129.577C545.759 129.577 547.265 130.675 550.025 130.675C552.786 130.675 554.544 129.577 554.544 129.577" stroke="black" stroke-width="2" stroke-linecap="round"/>
<path d="M565.525 129.577C565.525 129.577 567.031 130.675 569.791 130.675C572.552 130.675 574.31 129.577 574.31 129.577" stroke="black" stroke-width="2" stroke-linecap="round"/>
<path d="M501.152 111.726C502.257 111.726 503.152 112.622 503.152 113.726V122.482C503.152 123.586 502.257 124.482 501.152 124.482H487.758C486.654 124.482 485.758 125.377 485.758 126.482V139.876C485.758 140.98 484.863 141.876 483.758 141.876H475.002C473.898 141.876 473.003 140.98 473.003 139.876V126.482C473.003 125.377 472.107 124.482 471.002 124.482H457.714C456.609 124.482 455.714 123.586 455.714 122.482V113.726C455.714 112.622 456.609 111.726 457.714 111.726H471.002C472.107 111.726 473.003 110.831 473.003 109.726V96.4374C473.003 95.3329 473.898 94.4374 475.002 94.4374H483.758C484.863 94.4374 485.758 95.3329 485.758 96.4374V109.726C485.758 110.831 486.654 111.726 487.758 111.726H501.152Z" fill="white" fill-opacity="0.44"/>
<circle cx="560.583" cy="192.718" r="1.64716" fill="white"/>
<circle cx="560.583" cy="201.503" r="1.64716" fill="white"/>
<path d="M550.313 182.407L559.599 180.718C559.886 180.666 560.18 180.677 560.462 180.751L570.158 183.28C571.425 183.61 572.663 182.654 572.663 181.345V176.201C572.663 174.858 571.365 173.896 570.08 174.287L560.63 177.163C560.242 177.281 559.827 177.279 559.441 177.156L550.561 174.331C549.272 173.92 547.955 174.883 547.955 176.236V180.439C547.955 181.687 549.085 182.63 550.313 182.407Z" fill="white"/>
<mask id="mask1_175_93" style="mask-type:alpha" maskUnits="userSpaceOnUse" x="10" y="74" width="610" height="147">
<ellipse cx="63.6887" cy="214.131" rx="45.0225" ry="6.58866" fill="#3A5DCC"/>
<ellipse cx="65.6077" cy="158.422" rx="55.0725" ry="55.0725" fill="#EABB5A"/>
<path d="M120.737 158.288C120.737 188.795 95.9421 213.361 64.9487 213.361C58.5268 213.361 108.442 215.268 108.442 163.312C108.442 111.356 35.7493 103.349 65.9668 103.349C96.1843 103.349 120.737 127.78 120.737 158.288Z" fill="#D9AD52"/>
<ellipse cx="50.2646" cy="129.201" rx="13.8278" ry="13.8278" fill="white"/>
<ellipse cx="74.1057" cy="129.201" rx="14.3047" ry="13.8278" fill="white"/>
<ellipse cx="62.1856" cy="151.612" rx="17.6424" ry="18.1192" fill="white"/>
<path d="M57.1001 154.833C57.1001 154.833 58.9823 157.03 62.4335 157.03C65.8847 157.03 68.0812 154.833 68.0812 154.833" stroke="black" stroke-width="2" stroke-linecap="round"/>
<path d="M79.0625 131.224C79.0625 131.224 77.4153 129.028 74.121 129.028C70.8267 129.028 69.1795 130.675 69.1795 130.675" stroke="black" stroke-width="2" stroke-linecap="round"/>
<path d="M54.9041 131.224C54.9041 131.224 53.2569 129.028 49.9626 129.028C46.6682 129.028 45.0211 130.675 45.0211 130.675" stroke="black" stroke-width="2" stroke-linecap="round"/>
<mask id="mask2_175_93" style="mask-type:alpha" maskUnits="userSpaceOnUse" x="10" y="103" width="112" height="111">
<ellipse cx="66.052" cy="158.295" rx="55.0725" ry="55.0725" fill="#EABB5A"/>
</mask>
<g mask="url(#mask2_175_93)">
<path d="M49.869 177.842L11.5309 174.733C10.5739 174.656 9.69693 175.268 9.44105 176.194C7.88075 181.837 5.3388 190.973 4.93993 192.169C4.39088 193.816 19.2154 223.465 19.2154 224.563C19.2154 225.431 78.7913 216.737 109.721 212.113C110.462 212.002 111.059 211.489 111.299 210.779L122.093 178.888C122.532 177.591 121.575 176.247 120.206 176.247H73.0227C72.2435 176.247 66.5113 182.006 62.799 185.862C62.0627 186.627 60.8596 186.69 60.0507 186.002L51.0026 178.311C50.6833 178.04 50.2867 177.876 49.869 177.842Z" fill="white"/>
</g>
<circle cx="62.0417" cy="192.718" r="1.64716" fill="black"/>
<circle cx="62.0417" cy="201.503" r="1.64716" fill="black"/>
<path d="M116.808 134.767C119.682 132.648 121.598 129.474 122.133 125.944C122.667 122.413 121.778 118.814 119.659 115.94C117.541 113.065 114.367 111.15 110.836 110.615C107.306 110.08 103.707 110.97 100.832 113.088L108.82 123.927L116.808 134.767Z" fill="#1F45F5"/>
<path d="M15.5003 133.922C12.6255 131.803 10.7101 128.629 10.1753 125.099C9.64048 121.568 10.5302 117.969 12.6486 115.095C14.7671 112.22 17.9407 110.305 21.4715 109.77C25.0022 109.235 28.6007 110.125 31.4755 112.243L23.4879 123.082L15.5003 133.922Z" fill="#1F45F5"/>
<rect x="96.7974" y="112.034" width="5.9817" height="32.6269" rx="2.99085" transform="rotate(-31.4948 96.7974 112.034)" fill="#6FA5F3"/>
<rect width="5.9817" height="32.6269" rx="2.99085" transform="matrix(-0.852688 -0.522421 -0.522421 0.852688 35.5107 111.189)" fill="#6FA5F3"/>
<path d="M31.8438 110.909C35.5316 100.801 49.5191 77.3377 67.1615 75.8862C93.1178 73.7507 97.3734 101.513 99.9265 110.909" stroke="#6FA5F3" stroke-width="3" stroke-linecap="round"/>
<ellipse cx="563.329" cy="214.131" rx="45.0225" ry="6.58866" fill="#3A5DCC"/>
<rect x="560.3" y="86.7402" width="6.03328" height="20.7616" rx="3.01664" transform="rotate(11.1576 560.3 86.7402)" fill="#D9AD52"/>
<rect x="567.175" y="90.022" width="6.03328" height="20.7616" rx="3.01664" transform="rotate(11.1576 567.175 90.022)" fill="#D9AD52"/>
<ellipse cx="564.149" cy="158.422" rx="55.0725" ry="55.0725" fill="#EABB5A"/>
<path d="M619.278 158.288C619.278 188.795 594.483 213.361 563.49 213.361C557.068 213.361 606.983 215.268 606.983 163.312C606.983 111.356 534.291 103.349 564.508 103.349C594.726 103.349 619.278 127.78 619.278 158.288Z" fill="#D9AD52"/>
<circle cx="549.602" cy="129.028" r="11.5301" fill="white"/>
<circle cx="569.368" cy="129.028" r="11.5301" fill="white"/>
<circle cx="559.485" cy="147.696" r="14.8245" fill="white"/>
<path d="M555.642 150.441C555.642 150.441 557.148 151.539 559.909 151.539C562.67 151.539 564.427 150.441 564.427 150.441" stroke="black" stroke-width="2" stroke-linecap="round"/>
<path d="M545.759 129.577C545.759 129.577 547.265 130.675 550.025 130.675C552.786 130.675 554.544 129.577 554.544 129.577" stroke="black" stroke-width="2" stroke-linecap="round"/>
<path d="M565.525 129.577C565.525 129.577 567.031 130.675 569.791 130.675C572.552 130.675 574.31 129.577 574.31 129.577" stroke="black" stroke-width="2" stroke-linecap="round"/>
<path d="M501.152 111.726C502.257 111.726 503.152 112.622 503.152 113.726V122.482C503.152 123.586 502.257 124.482 501.152 124.482H487.758C486.654 124.482 485.758 125.377 485.758 126.482V139.876C485.758 140.98 484.863 141.876 483.758 141.876H475.002C473.898 141.876 473.003 140.98 473.003 139.876V126.482C473.003 125.377 472.107 124.482 471.002 124.482H457.714C456.609 124.482 455.714 123.586 455.714 122.482V113.726C455.714 112.622 456.609 111.726 457.714 111.726H471.002C472.107 111.726 473.003 110.831 473.003 109.726V96.4374C473.003 95.3329 473.898 94.4374 475.002 94.4374H483.758C484.863 94.4374 485.758 95.3329 485.758 96.4374V109.726C485.758 110.831 486.654 111.726 487.758 111.726H501.152Z" fill="white" fill-opacity="0.44"/>
<circle cx="560.583" cy="192.718" r="1.64716" fill="white"/>
<circle cx="560.583" cy="201.503" r="1.64716" fill="white"/>
<path d="M550.313 182.407L559.599 180.718C559.886 180.666 560.18 180.677 560.462 180.751L570.158 183.28C571.425 183.61 572.663 182.654 572.663 181.345V176.201C572.663 174.858 571.365 173.896 570.08 174.287L560.63 177.163C560.242 177.281 559.827 177.279 559.441 177.156L550.561 174.331C549.272 173.92 547.955 174.883 547.955 176.236V180.439C547.955 181.687 549.085 182.63 550.313 182.407Z" fill="white"/>
</mask>
<g mask="url(#mask1_175_93)">
<rect x="-141.657" y="13.1773" width="911.431" height="306.372" fill="#1F45F5" fill-opacity="0.63"/>
</g>
<rect x="410" y="44.158" width="179" height="13" rx="6.5" fill="#3A5DCC"/>
<rect x="412" y="46.158" width="196" height="9" rx="4.5" fill="#7590F3"/>
<path d="M585.68 15.358H588.56V32.158H585.248V18.862L582.08 19.75L581.264 16.918L585.68 15.358ZM594.961 15.358H597.841V32.158H594.529V18.862L591.361 19.75L590.545 16.918L594.961 15.358ZM607.123 32.494C605.027 32.494 603.379 31.702 602.179 30.118C600.995 28.518 600.403 26.398 600.403 23.758C600.403 21.118 600.995 19.006 602.179 17.422C603.379 15.822 605.027 15.022 607.123 15.022C609.235 15.022 610.883 15.822 612.067 17.422C613.251 19.006 613.843 21.118 613.843 23.758C613.843 26.398 613.251 28.518 612.067 30.118C610.883 31.702 609.235 32.494 607.123 32.494ZM604.579 27.862C605.155 28.79 606.003 29.254 607.123 29.254C608.243 29.254 609.091 28.782 609.667 27.838C610.259 26.894 610.555 25.534 610.555 23.758C610.555 21.966 610.259 20.598 609.667 19.654C609.091 18.71 608.243 18.238 607.123 18.238C606.003 18.238 605.155 18.71 604.579 19.654C604.003 20.598 603.715 21.966 603.715 23.758C603.715 25.55 604.003 26.918 604.579 27.862ZM622.227 21.814C621.459 22.566 620.499 22.942 619.347 22.942C618.195 22.942 617.227 22.558 616.443 21.79C615.675 21.022 615.291 20.086 615.291 18.982C615.291 17.878 615.675 16.942 616.443 16.174C617.227 15.406 618.195 15.022 619.347 15.022C620.499 15.022 621.459 15.406 622.227 16.174C622.995 16.926 623.379 17.862 623.379 18.982C623.379 20.102 622.995 21.046 622.227 21.814ZM616.995 29.614L627.939 17.446L629.403 18.262L618.435 30.454L616.995 29.614ZM618.243 20.086C618.531 20.374 618.891 20.518 619.323 20.518C619.755 20.518 620.115 20.374 620.403 20.086C620.691 19.782 620.835 19.414 620.835 18.982C620.835 18.55 620.691 18.19 620.403 17.902C620.115 17.614 619.755 17.47 619.323 17.47C618.891 17.47 618.531 17.614 618.243 17.902C617.971 18.19 617.835 18.55 617.835 18.982C617.835 19.414 617.971 19.782 618.243 20.086ZM630.339 31.294C629.571 32.062 628.611 32.446 627.459 32.446C626.307 32.446 625.347 32.062 624.579 31.294C623.811 30.526 623.427 29.59 623.427 28.486C623.427 27.382 623.811 26.446 624.579 25.678C625.347 24.91 626.307 24.526 627.459 24.526C628.611 24.526 629.571 24.91 630.339 25.678C631.107 26.446 631.491 27.382 631.491 28.486C631.491 29.59 631.107 30.526 630.339 31.294ZM626.379 29.59C626.667 29.878 627.027 30.022 627.459 30.022C627.891 30.022 628.243 29.87 628.515 29.566C628.803 29.262 628.947 28.902 628.947 28.486C628.947 28.054 628.803 27.694 628.515 27.406C628.243 27.102 627.891 26.95 627.459 26.95C627.027 26.95 626.667 27.102 626.379 27.406C626.107 27.694 625.971 28.054 625.971 28.486C625.971 28.918 626.107 29.286 626.379 29.59Z" fill="#7590F3"/>
</svg>
