<svg width="594" height="362" viewBox="0 0 594 362" fill="none" xmlns="http://www.w3.org/2000/svg">
<ellipse cx="69.5" cy="273.5" rx="51.5" ry="4.5" fill="#3A5DCC"/>
<ellipse cx="524.5" cy="215" rx="52.5" ry="5" fill="#3A5DCC"/>
<rect x="64.9463" y="140.476" width="6.23379" height="21.4516" rx="3.1169" transform="rotate(11.1576 64.9463 140.476)" fill="#D9AD52"/>
<rect x="72.0498" y="143.867" width="6.23379" height="21.4516" rx="3.1169" transform="rotate(11.1576 72.0498 143.867)" fill="#D9AD52"/>
<ellipse cx="68.9238" cy="214.54" rx="56.9028" ry="56.9028" fill="#EABB5A"/>
<path d="M125.885 214.401C125.885 245.922 100.266 271.304 68.2429 271.304C61.6076 271.304 113.182 273.275 113.182 219.592C113.182 165.91 38.0732 157.637 69.2949 157.637C100.517 157.637 125.885 182.88 125.885 214.401Z" fill="#D9AD52"/>
<ellipse cx="53.0711" cy="184.348" rx="14.2874" ry="14.2874" fill="white"/>
<ellipse cx="77.7044" cy="184.348" rx="14.7801" ry="14.2874" fill="white"/>
<ellipse cx="65.3882" cy="207.504" rx="18.2287" ry="18.7214" fill="white"/>
<path d="M56.0269 210.459C56.0269 210.459 59.4046 215.386 65.5982 215.386C71.7917 215.386 75.7336 210.459 75.7336 210.459" stroke="black" stroke-width="3" stroke-linecap="round"/>
<path d="M47.1594 182.87C47.1594 182.87 49.4394 186.319 53.62 186.319C57.8007 186.319 60.4615 182.87 60.4615 182.87" stroke="black" stroke-width="3" stroke-linecap="round"/>
<path d="M70.8066 182.87C70.8066 182.87 73.1711 186.319 77.5065 186.319C81.842 186.319 84.6014 182.87 84.6014 182.87" stroke="black" stroke-width="3" stroke-linecap="round"/>
<path d="M103.103 201.951C108.927 223.188 99.7023 224.492 93.8549 235.025C82.5512 255.387 80.9526 231.371 78.0981 235.025" stroke="#FFDE9A" stroke-width="6" stroke-linecap="round"/>
<path d="M31.3131 201.951C25.4899 223.188 34.7142 224.492 40.5616 235.025C51.8653 255.387 53.4639 231.371 56.3184 235.025" stroke="#FFDE9A" stroke-width="6" stroke-linecap="round"/>
<path d="M93.8555 260.183H36.9942L26.033 227.984H105.502L93.8555 260.183Z" fill="#3A5DCC"/>
<circle cx="63.3692" cy="242.182" r="3.08284" fill="#6FA5F3"/>
<circle cx="68.8502" cy="242.182" r="3.08284" fill="#6FA5F3"/>
<circle cx="66.1097" cy="246.978" r="3.76792" fill="#6FA5F3"/>
<rect x="36.9939" y="260.182" width="56.8613" height="4.79553" fill="#6FA5F3"/>
<ellipse cx="526.17" cy="157.81" rx="56.9028" ry="56.9028" fill="#EABB5A"/>
<path d="M583.131 157.671C583.131 189.192 557.512 214.574 525.489 214.574C518.854 214.574 570.428 216.545 570.428 162.862C570.428 109.18 495.319 100.907 526.541 100.907C557.763 100.907 583.131 126.15 583.131 157.671Z" fill="#D9AD52"/>
<ellipse cx="510.317" cy="127.618" rx="14.2874" ry="14.2874" fill="white"/>
<ellipse cx="534.95" cy="127.618" rx="14.7801" ry="14.2874" fill="white"/>
<ellipse cx="522.634" cy="150.774" rx="18.2287" ry="18.7214" fill="white"/>
<path d="M513.273 153.73C513.273 153.73 516.65 158.656 522.844 158.656C529.038 158.656 532.979 153.73 532.979 153.73" stroke="black" stroke-width="3" stroke-linecap="round"/>
<path d="M504.405 126.14C504.405 126.14 506.685 129.589 510.866 129.589C515.047 129.589 517.707 126.14 517.707 126.14" stroke="black" stroke-width="3" stroke-linecap="round"/>
<path d="M528.053 126.14C528.053 126.14 530.417 129.589 534.753 129.589C539.088 129.589 541.847 126.14 541.847 126.14" stroke="black" stroke-width="3" stroke-linecap="round"/>
<path d="M560.349 145.221C566.173 166.458 556.948 167.762 551.101 178.295C539.797 198.657 538.199 174.641 535.344 178.295" stroke="#FFDE9A" stroke-width="6" stroke-linecap="round"/>
<path d="M488.559 145.221C482.736 166.458 491.96 167.762 497.808 178.295C509.111 198.657 510.71 174.641 513.564 178.295" stroke="#FFDE9A" stroke-width="6" stroke-linecap="round"/>
<ellipse cx="296.132" cy="350.956" rx="111.191" ry="10.7787" fill="#3A5DCC"/>
<circle cx="296.698" cy="217.441" r="131.046" fill="#F4E07C"/>
<path d="M191.314 236.928C192.071 257.351 203.796 292.034 234.997 298.764C275.483 307.496 290.026 278.341 309.314 273.235C324.744 269.151 338.057 280.232 342.785 286.283" stroke="#FFF5D0" stroke-width="6" stroke-linecap="round"/>
<path d="M427.879 217.122C427.879 289.715 368.879 348.169 295.13 348.169C279.849 348.169 398.623 352.708 398.623 229.078C398.623 105.448 225.65 86.3959 297.553 86.3959C369.456 86.3959 427.879 144.53 427.879 217.122Z" fill="#EFD161"/>
<ellipse rx="23.8267" ry="32.9035" transform="matrix(-1 -9.11322e-09 -9.11322e-09 1 317.689 157.251)" fill="white"/>
<ellipse rx="24.9613" ry="32.9035" transform="matrix(-1 -9.11322e-09 -9.11322e-09 1 275.709 157.251)" fill="white"/>
<ellipse rx="31.2016" ry="43.1149" transform="matrix(-1 -9.11322e-09 -9.11322e-09 1 296.699 210.577)" fill="white"/>
<path d="M307.478 217.64C307.478 217.64 303.588 223.313 296.457 223.313C289.325 223.313 284.786 217.64 284.786 217.64" stroke="black" stroke-width="5" stroke-linecap="round"/>
<path d="M288.189 151.578C288.189 151.578 284.106 157.251 276.617 157.251C269.129 157.251 264.363 151.578 264.363 151.578" stroke="black" stroke-width="5" stroke-linecap="round"/>
<path d="M330.17 151.578C330.17 151.578 326.086 157.251 318.598 157.251C311.109 157.251 306.343 151.578 306.343 151.578" stroke="black" stroke-width="5" stroke-linecap="round"/>
<mask id="path-40-inside-1_264_5" fill="white">
<path d="M266.53 64.4378C268.525 62.0108 271.014 60.0365 273.831 58.6464C276.649 57.2562 279.73 56.4821 282.87 56.3755C286.01 56.2688 289.137 56.8322 292.042 58.028C294.947 59.2238 297.565 61.0247 299.72 63.3108C301.875 65.5968 303.518 68.3157 304.541 71.2864C305.564 74.2571 305.942 77.4115 305.65 80.5398C305.359 83.668 304.405 86.6983 302.851 89.429C301.297 92.1597 299.18 94.5282 296.639 96.3768L290.609 88.0909C291.973 87.0985 293.11 85.827 293.944 84.3611C294.778 82.8952 295.29 81.2685 295.447 79.5892C295.603 77.9099 295.4 76.2165 294.851 74.6218C294.302 73.0271 293.42 71.5675 292.263 70.3403C291.106 69.1131 289.701 68.1463 288.142 67.5044C286.582 66.8625 284.903 66.56 283.218 66.6173C281.532 66.6745 279.878 67.0901 278.366 67.8364C276.853 68.5826 275.517 69.6424 274.446 70.9453L266.53 64.4378Z"/>
</mask>
<path d="M266.53 64.4378C268.525 62.0108 271.014 60.0365 273.831 58.6464C276.649 57.2562 279.73 56.4821 282.87 56.3755C286.01 56.2688 289.137 56.8322 292.042 58.028C294.947 59.2238 297.565 61.0247 299.72 63.3108C301.875 65.5968 303.518 68.3157 304.541 71.2864C305.564 74.2571 305.942 77.4115 305.65 80.5398C305.359 83.668 304.405 86.6983 302.851 89.429C301.297 92.1597 299.18 94.5282 296.639 96.3768L290.609 88.0909C291.973 87.0985 293.11 85.827 293.944 84.3611C294.778 82.8952 295.29 81.2685 295.447 79.5892C295.603 77.9099 295.4 76.2165 294.851 74.6218C294.302 73.0271 293.42 71.5675 292.263 70.3403C291.106 69.1131 289.701 68.1463 288.142 67.5044C286.582 66.8625 284.903 66.56 283.218 66.6173C281.532 66.6745 279.878 67.0901 278.366 67.8364C276.853 68.5826 275.517 69.6424 274.446 70.9453L266.53 64.4378Z" stroke="#EFD161" stroke-width="18" stroke-linejoin="round" mask="url(#path-40-inside-1_264_5)"/>
<circle cx="270.169" cy="68.4395" r="5.10572" fill="#EFD161"/>
<mask id="path-42-inside-2_264_5" fill="white">
<path d="M254.311 51.2471C260.749 43.4156 269.932 38.335 279.987 37.0415C290.042 35.7479 300.212 38.339 308.422 44.2862C316.632 50.2333 322.265 59.0886 324.17 69.0458C326.076 79.0031 324.111 89.3122 318.677 97.8706L308.131 91.1745C311.861 85.3014 313.209 78.2269 311.901 71.3939C310.593 64.5609 306.728 58.4841 301.094 54.4029C295.46 50.3217 288.481 48.5437 281.581 49.4313C274.681 50.319 268.379 53.8055 263.961 59.1798L254.311 51.2471Z"/>
</mask>
<path d="M254.311 51.2471C260.749 43.4156 269.932 38.335 279.987 37.0415C290.042 35.7479 300.212 38.339 308.422 44.2862C316.632 50.2333 322.265 59.0886 324.17 69.0458C326.076 79.0031 324.111 89.3122 318.677 97.8706L308.131 91.1745C311.861 85.3014 313.209 78.2269 311.901 71.3939C310.593 64.5609 306.728 58.4841 301.094 54.4029C295.46 50.3217 288.481 48.5437 281.581 49.4313C274.681 50.319 268.379 53.8055 263.961 59.1798L254.311 51.2471Z" stroke="#EFD161" stroke-width="18" stroke-linejoin="round" mask="url(#path-42-inside-2_264_5)"/>
<circle cx="258.823" cy="55.9587" r="6.24032" fill="#EFD161"/>
<path d="M401.237 274.953C380.998 272.115 347.694 256.91 344.186 225.185C339.633 184.018 370.121 172.529 377.17 153.863C382.809 138.93 373.145 124.555 367.608 119.235" stroke="#FFF5D0" stroke-width="6" stroke-linecap="round"/>
<path d="M475 147H573L566.082 208H477.882L475 147Z" fill="#3A5DCC"/>
<rect x="516" y="208" width="11" height="27" fill="#6FA5F3"/>
<rect x="506" y="234" width="30" height="6" fill="#3A5DCC"/>
<ellipse cx="163.5" cy="52" rx="52.5" ry="52" fill="#6FA5F3"/>
<rect x="160" y="28" width="4" height="28" rx="2" fill="white"/>
<rect x="160" y="4" width="4" height="11" rx="2" fill="#6698E0"/>
<rect x="160" y="90" width="4" height="11" rx="2" fill="#6698E0"/>
<rect x="114" y="55" width="5" height="10" rx="2" transform="rotate(-90 114 55)" fill="#6698E0"/>
<rect x="200" y="55" width="5" height="10" rx="2" transform="rotate(-90 200 55)" fill="#6698E0"/>
<rect x="159.979" y="54.4861" width="4.53841" height="29.4315" rx="2" transform="rotate(-53.1848 159.979 54.4861)" fill="white"/>
</svg>
