<svg width="656" height="346" viewBox="0 0 656 346" fill="none" xmlns="http://www.w3.org/2000/svg">
<ellipse cx="554.5" cy="311.488" rx="101.5" ry="15" fill="#3A5DCC"/>
<ellipse cx="465.538" cy="172.637" rx="115.734" ry="154.025" transform="rotate(10.5669 465.538 172.637)" fill="#6698E0"/>
<ellipse cx="465.184" cy="173.555" rx="104.564" ry="142.293" transform="rotate(10.5669 465.184 173.555)" fill="#6FA5F3"/>
<rect x="456" y="91.4883" width="7" height="87" rx="3.5" fill="white"/>
<rect x="459" y="41.4883" width="9" height="28" rx="4.5" fill="#6698E0"/>
<rect x="459" y="278.488" width="9" height="27" rx="4.5" fill="#6698E0"/>
<rect x="373" y="180.488" width="13" height="18" rx="6.5" transform="rotate(-90 373 180.488)" fill="#6698E0"/>
<rect x="535" y="180.488" width="13" height="19" rx="6.5" transform="rotate(-90 535 180.488)" fill="#6698E0"/>
<rect width="9.62729" height="56.6492" rx="4.81364" transform="matrix(0.463465 -0.886115 0.682399 0.73098 453.326 175.618)" fill="white"/>
<path d="M464.124 174.171C463.75 176.176 462.817 177.86 461.636 178.967C460.454 180.074 459.053 180.581 457.705 180.33C456.356 180.078 455.233 179.1 454.529 177.641C453.826 176.183 453.563 174.276 453.937 172.271C454.311 170.266 455.244 168.582 456.426 167.475C457.608 166.368 459.008 165.861 460.357 166.112C461.705 166.364 462.829 167.342 463.532 168.801C464.235 170.259 464.498 172.166 464.124 174.171Z" fill="#6FA5F3" stroke="#6698E0"/>
<path d="M578 187.488L628 304.488" stroke="#6698E0" stroke-width="10" stroke-linecap="round"/>
<ellipse cx="117.798" cy="316.448" rx="73.835" ry="10.7089" fill="#3A5DCC"/>
<rect x="106.866" y="100.624" width="10.2573" height="35.2973" rx="5.12867" transform="rotate(11.1576 106.866 100.624)" fill="#D9AD52"/>
<rect x="118.554" y="106.204" width="10.2573" height="35.2973" rx="5.12867" transform="rotate(11.1576 118.554 106.204)" fill="#D9AD52"/>
<ellipse cx="113.41" cy="222.492" rx="93.6302" ry="93.6302" fill="#EABB5A"/>
<path d="M207.137 222.264C207.137 274.13 164.983 315.895 112.29 315.895C101.372 315.895 186.234 319.138 186.234 230.806C186.234 142.475 62.6474 128.862 114.021 128.862C165.394 128.862 207.137 170.398 207.137 222.264Z" fill="#D9AD52"/>
<ellipse cx="162.161" cy="175.688" rx="23.509" ry="23.509" fill="white"/>
<path d="M169.895 219.736C161.389 205.002 156.659 196.877 171.005 188.594C185.351 180.311 203.877 185.541 212.383 200.275C220.89 215.009 216.156 233.667 201.81 241.95C187.464 250.233 178.402 234.47 169.895 219.736Z" fill="white"/>
<path d="M195.014 213.103C195.014 213.103 204.053 215.311 210.956 208.917C217.859 202.524 209.105 210.404 209.105 210.404" stroke="black" stroke-width="5" stroke-linecap="round"/>
<path d="M151.077 175.987C151.077 175.987 157.207 179.111 163.472 175.7C169.738 172.289 171.012 165.134 171.012 165.134" stroke="black" stroke-width="5" stroke-linecap="round"/>
<path d="M110.471 218.687C111.222 238.977 122.871 273.436 153.87 280.122C194.094 288.798 208.542 259.832 227.705 254.759C243.036 250.701 256.262 261.71 260.959 267.722" stroke="#FFF5D0" stroke-width="6" stroke-linecap="round"/>
<path d="M290.831 206.851L267.722 285.758L290.831 293.649L322.958 206.851H290.831Z" fill="#3A5DCC"/>
<path d="M267.722 285.758L187.745 291.593L229.396 313.94L291.395 293.649L267.722 285.758Z" fill="#6698E0"/>
<path d="M232.375 317.488L229 314.203L290.312 294.488L292 297.774L232.375 317.488Z" fill="#6FA5F3"/>
<path d="M292.522 297.031L290.831 293.649L322.957 207.414L325.776 208.542L292.522 297.031Z" fill="#6FA5F3"/>
<path d="M189.114 294.711L188 292.488L229.215 314.155L232 317.488L189.114 294.711Z" fill="#6FA5F3"/>
<path d="M526 238.667V243.238H523.936V247.488H520.11V243.238H511V238.667L517.413 222.488H521.486L515.101 238.667H520.11V232.738H523.936V238.667H526Z" fill="white"/>
</svg>
