<?xml version="1.0" encoding="utf-8"?>
<!-- Generator: Adobe Illustrator 25.4.1, SVG Export Plug-In . SVG Version: 6.00 Build 0)  -->
<svg version="1.1" id="Слой_1" xmlns="http://www.w3.org/2000/svg" xmlns:xlink="http://www.w3.org/1999/xlink" x="0px" y="0px"
	 viewBox="0 0 360 108" enable-background="new 0 0 360 108" xml:space="preserve">
<g>
	<path fill="#FFFFFF" d="M139.5,46.8c3.4,0,6.3,1.2,8.5,3.7c2.3,2.4,3.4,5.4,3.4,8.9s-1.1,6.5-3.4,9c-2.3,2.4-5.1,3.6-8.5,3.6h-9.8
		V46.8H139.5z M139.5,68.8c2.6,0,4.7-0.9,6.3-2.7c1.6-1.8,2.4-4,2.4-6.7s-0.8-4.9-2.4-6.7s-3.7-2.7-6.3-2.7H133v18.9L139.5,68.8
		L139.5,68.8z M158.9,68.8h11.7V72h-15V46.8h14.9V50H159v7.7h10.6v3.1H159L158.9,68.8L158.9,68.8z M178,68.8h11.7V72h-15V46.8h14.9
		V50H178v7.7h10.6v3.1H178V68.8z M202.9,46.8c2.3,0,4.3,0.8,5.8,2.3c1.6,1.5,2.3,3.5,2.3,5.8s-0.8,4.2-2.3,5.8s-3.5,2.3-5.8,2.3
		h-5.8v9h-3.3V46.8H202.9z M202.9,59.9c1.4,0,2.5-0.5,3.5-1.4c0.9-1,1.4-2.1,1.4-3.6c0-1.4-0.5-2.6-1.4-3.6
		c-0.9-0.9-2.1-1.4-3.5-1.4h-5.8v9.9L202.9,59.9L202.9,59.9z M220,72l-7.2-25.2h3.5l5.8,20.7l6.1-20.7h3.4l6.1,20.7l5.8-20.7h3.5
		L239.7,72h-3.9l-6-20.1l-6,20.1H220z M270.4,68.7c-2.5,2.5-5.6,3.8-9.3,3.8s-6.7-1.3-9.3-3.8s-3.8-5.6-3.8-9.3
		c0-3.6,1.3-6.7,3.8-9.3c2.5-2.5,5.6-3.8,9.3-3.8s6.7,1.3,9.3,3.8c2.5,2.5,3.8,5.6,3.8,9.3C274.2,63,272.9,66.1,270.4,68.7z
		 M254.2,66.4c1.9,1.9,4.2,2.8,6.9,2.8s5.1-0.9,6.9-2.8c1.9-1.9,2.8-4.2,2.8-7s-0.9-5.1-2.8-7c-1.8-1.9-4.2-2.8-6.9-2.8
		s-5.1,0.9-6.9,2.8c-1.8,1.9-2.8,4.2-2.8,7C251.4,62.2,252.3,64.5,254.2,66.4z M293.2,72l-5.7-9.6h-5.9V72h-3.3V46.8h10.1
		c2.2,0,4,0.8,5.5,2.3s2.3,3.3,2.3,5.5c0,1.6-0.5,3.1-1.5,4.5c-1,1.3-2.2,2.3-3.7,2.8l5.9,10.1H293.2z M281.6,49.9v9.4h6.7
		c1.2,0,2.3-0.5,3.2-1.4c0.9-0.9,1.3-2.1,1.3-3.3c0-1.3-0.4-2.4-1.3-3.3c-0.9-0.9-1.9-1.4-3.2-1.4H281.6z M318.6,72h-4.1l-10.9-12.1
		V72h-3.3V46.8h3.3v11.4l10.5-11.4h4.1L307.1,59L318.6,72z M324.9,68.8h11.7V72h-15V46.8h14.9V50H325v7.7h10.6v3.1H325v8H324.9z
		 M355.6,72l-5.7-9.6H344V72h-3.3V46.8h10.1c2.2,0,4,0.8,5.5,2.3s2.3,3.3,2.3,5.5c0,1.6-0.5,3.1-1.5,4.5c-1,1.3-2.2,2.3-3.7,2.8
		l5.9,10.1H355.6z M344,49.9v9.4h6.7c1.2,0,2.3-0.5,3.2-1.4c0.9-0.9,1.3-2.1,1.3-3.3c0-1.3-0.4-2.4-1.3-3.3
		c-0.9-0.9-1.9-1.4-3.2-1.4H344z"/>
	<path fill="#FFFFFF" d="M89,49c0-8.3-6.9-15-15.5-15c-5.4,0-10.1,2.7-12.9,6.7c-2.6-4-7-6.7-12.1-6.7c-8,0-14.5,6.7-14.5,15
		c0,6.7,4.3,12.5,10.2,14.3C42.8,66,42,69.1,42,72.5C42,83.3,50.5,92,61,92s19-8.7,19-19.5c0-3.3-0.8-6.4-2.2-9.1
		C84.3,61.6,89,55.8,89,49z M40.8,48.9c-0.5-0.6-0.4-1.6,0.2-2.1c0.6-0.5,1.6-0.4,2.1,0.2c0.1,0.1,2.1,2.4,5.6,2.4
		c3.7,0,6.1-2.5,6.1-2.5c0.6-0.6,1.5-0.6,2.1-0.1c0.6,0.6,0.6,1.5,0.1,2.1c-0.1,0.1-3.3,3.5-8.3,3.5C43.7,52.5,40.9,49.1,40.8,48.9z
		 M73.2,76.8c-0.2,0.3-4.5,6.7-11.5,6.7c-7.1,0-10.9-6.5-11-6.8c-0.4-0.7-0.2-1.6,0.6-2c0.7-0.4,1.6-0.2,2,0.6
		c0,0.1,3.1,5.2,8.4,5.2c5.4,0,9-5.3,9-5.3c0.5-0.7,1.4-0.9,2.1-0.4C73.5,75.2,73.7,76.1,73.2,76.8z M82.1,49
		c-0.1,0.1-3.3,3.5-8.3,3.5c-5.1,0-7.9-3.4-8-3.6c-0.5-0.6-0.4-1.6,0.2-2.1s1.6-0.4,2.1,0.2c0.1,0.1,2.1,2.4,5.6,2.4
		c3.7,0,6.1-2.5,6.1-2.5c0.6-0.6,1.5-0.6,2.1-0.1C82.6,47.5,82.7,48.4,82.1,49z"/>
</g>
<g>
	<g>
		<path fill="#FFFFFF" d="M113.9,27.9c-2.1-2.9-5.3-4.8-8.9-5.4c-1.4-0.2-2.8-0.2-4.2,0C92.5,9.1,77.5,0,60.5,0s-32,9-40.3,22.5
			c-1.1-0.1-2.1-0.1-3.2,0.1c-3.6,0.5-6.8,2.5-8.9,5.4C5.9,30.8,5,34.5,5.6,38c0.5,3.3,2.2,6.3,4.8,8.4v-0.1l14-22.8
			c-0.7-0.3-1.3-0.5-2-0.7C30.4,10.3,44.5,2,60.5,2s30.2,8.4,38.3,21.1c-0.4,0.1-0.8,0.3-1.2,0.4l14,22.8v0.1
			c2.5-2.1,4.3-5.1,4.8-8.4C117,34.5,116.1,30.8,113.9,27.9z"/>
		<path fill="#FFFFFF" d="M106.5,49.5l-14-22.9c-0.3-0.5-0.4-1-0.4-1.6c-8.4-7.5-19.4-12-31.5-12C48.9,13,38.3,17.2,30,24.2
			c0.2,0.8,0.1,1.6-0.3,2.3l-14,22.9c-0.4,0.6-0.9,1-1.5,1.2c-0.7,3.2-1,6.4-1,9.8C13,86.7,34.3,108,60.5,108S108,86.7,108,60.5
			c0-3.7-0.4-7.2-1.2-10.6C106.7,49.8,106.6,49.6,106.5,49.5z M60.5,101C38.2,101,20,82.8,20,60.5S38.2,20,60.5,20
			S101,38.2,101,60.5S82.8,101,60.5,101z"/>
	</g>
</g>
</svg>
