<svg width="354" height="247" viewBox="0 0 354 247" fill="none" xmlns="http://www.w3.org/2000/svg">
<path d="M136 6C136 2.68629 138.686 0 142 0H328C331.314 0 334 2.68629 334 6V31C334 34.3137 331.314 37 328 37H142C138.686 37 136 34.3137 136 31V6Z" fill="#436DEA"/>
<path d="M146 11C146 10.4477 146.448 10 147 10H272C272.552 10 273 10.4477 273 11V12C273 12.5523 272.552 13 272 13H147C146.448 13 146 12.5523 146 12V11Z" fill="#1F45F5"/>
<path d="M146 19C146 18.4477 146.448 18 147 18H187C187.552 18 188 18.4477 188 19V20C188 20.5523 187.552 21 187 21H147C146.448 21 146 20.5523 146 20V19Z" fill="#1F45F5"/>
<path d="M146 27C146 26.4477 146.448 26 147 26H262C262.552 26 263 26.4477 263 27V28C263 28.5523 262.552 29 262 29H147C146.448 29 146 28.5523 146 28V27Z" fill="#1F45F5"/>
<path d="M156 52C156 48.6863 158.686 46 162 46H348C351.314 46 354 48.6863 354 52V77C354 80.3137 351.314 83 348 83H162C158.686 83 156 80.3137 156 77V52Z" fill="#436DEA"/>
<path d="M170 61C170 60.4477 170.448 60 171 60H211C211.552 60 212 60.4477 212 61V62C212 62.5523 211.552 63 211 63H171C170.448 63 170 62.5523 170 62V61Z" fill="#1F45F5"/>
<path d="M170 69C170 68.4477 170.448 68 171 68H286C286.552 68 287 68.4477 287 69V70C287 70.5523 286.552 71 286 71H171C170.448 71 170 70.5523 170 70V69Z" fill="#1F45F5"/>
<path d="M136 98C136 94.6863 138.686 92 142 92H328C331.314 92 334 94.6863 334 98V123C334 126.314 331.314 129 328 129H142C138.686 129 136 126.314 136 123V98Z" fill="#436DEA"/>
<path d="M156 106C156 105.448 156.448 105 157 105H197C197.552 105 198 105.448 198 106V107C198 107.552 197.552 108 197 108H157C156.448 108 156 107.552 156 107V106Z" fill="#1F45F5"/>
<path d="M156 114C156 113.448 156.448 113 157 113H272C272.552 113 273 113.448 273 114V115C273 115.552 272.552 116 272 116H157C156.448 116 156 115.552 156 115V114Z" fill="#1F45F5"/>
<path d="M136 144C136 140.686 138.686 138 142 138H328C331.314 138 334 140.686 334 144V169C334 172.314 331.314 175 328 175H142C138.686 175 136 172.314 136 169V144Z" fill="#436DEA"/>
<path d="M287 188C287 186.343 288.343 185 290 185C291.657 185 293 186.343 293 188C293 189.657 291.657 191 290 191C288.343 191 287 189.657 287 188Z" fill="#436DEA"/>
<path d="M297 188C297 186.343 298.343 185 300 185C301.657 185 303 186.343 303 188C303 189.657 301.657 191 300 191C298.343 191 297 189.657 297 188Z" fill="#436DEA"/>
<path d="M307 188C307 186.343 308.343 185 310 185C311.657 185 313 186.343 313 188C313 189.657 311.657 191 310 191C308.343 191 307 189.657 307 188Z" fill="#436DEA"/>
<path d="M317 188C317 186.343 318.343 185 320 185C321.657 185 323 186.343 323 188C323 189.657 321.657 191 320 191C318.343 191 317 189.657 317 188Z" fill="#436DEA"/>
<path d="M156 153C156 152.448 156.448 152 157 152H197C197.552 152 198 152.448 198 153V154C198 154.552 197.552 155 197 155H157C156.448 155 156 154.552 156 154V153Z" fill="#1F45F5"/>
<path d="M156 161C156 160.448 156.448 160 157 160H272C272.552 160 273 160.448 273 161V162C273 162.552 272.552 163 272 163H157C156.448 163 156 162.552 156 162V161Z" fill="#1F45F5"/>
<ellipse cx="119.835" cy="233.709" rx="73.835" ry="10.7089" fill="#436DEA"/>
<rect x="106.866" y="13.3859" width="10.2573" height="35.2973" rx="5.12867" transform="rotate(11.1576 106.866 13.3859)" fill="#D9AD52"/>
<rect x="118.554" y="18.9653" width="10.2573" height="35.2973" rx="5.12867" transform="rotate(11.1576 118.554 18.9653)" fill="#D9AD52"/>
<ellipse cx="113.41" cy="135.254" rx="93.6302" ry="93.6302" fill="#EABB5A"/>
<path d="M207.137 135.026C207.137 186.892 164.983 228.656 112.29 228.656C101.372 228.656 186.234 231.899 186.234 143.568C186.234 55.236 62.6476 41.6235 114.021 41.6235C165.395 41.6235 207.137 83.1594 207.137 135.026Z" fill="#D9AD52"/>
<ellipse cx="162.161" cy="88.4497" rx="23.509" ry="23.509" fill="white"/>
<path d="M169.895 132.497C161.389 117.763 156.659 109.638 171.005 101.356C185.351 93.0729 203.877 98.3025 212.383 113.036C220.89 127.77 216.156 146.429 201.81 154.711C187.464 162.994 178.402 147.231 169.895 132.497Z" fill="white"/>
<path d="M195.014 125.865C195.014 125.865 204.053 128.072 210.956 121.679C217.859 115.285 209.105 123.165 209.105 123.165" stroke="black" stroke-width="5" stroke-linecap="round"/>
<path d="M151.077 88.7488C151.077 88.7488 157.207 91.8723 163.472 88.4612C169.738 85.0501 171.012 77.8952 171.012 77.8952" stroke="black" stroke-width="5" stroke-linecap="round"/>
<path d="M122 153.605C133.107 170.602 160.857 194.118 190.865 183.861C229.801 170.551 227.243 138.283 241.046 124.054C252.088 112.672 269.098 115.284 276.222 118.013" stroke="#FFF5D0" stroke-width="6" stroke-linecap="round"/>
<path d="M288.268 12.8H290.188V24H287.98V15.136L285.868 15.728L285.324 13.84L288.268 12.8ZM296.376 24.224C294.979 24.224 293.88 23.696 293.08 22.64C292.291 21.5733 291.896 20.16 291.896 18.4C291.896 16.64 292.291 15.232 293.08 14.176C293.88 13.1093 294.979 12.576 296.376 12.576C297.784 12.576 298.883 13.1093 299.672 14.176C300.461 15.232 300.856 16.64 300.856 18.4C300.856 20.16 300.461 21.5733 299.672 22.64C298.883 23.696 297.784 24.224 296.376 24.224ZM294.68 21.136C295.064 21.7547 295.629 22.064 296.376 22.064C297.123 22.064 297.688 21.7493 298.072 21.12C298.467 20.4907 298.664 19.584 298.664 18.4C298.664 17.2053 298.467 16.2933 298.072 15.664C297.688 15.0347 297.123 14.72 296.376 14.72C295.629 14.72 295.064 15.0347 294.68 15.664C294.296 16.2933 294.104 17.2053 294.104 18.4C294.104 19.5947 294.296 20.5067 294.68 21.136ZM304.518 18.08C304.251 18.3467 303.931 18.48 303.558 18.48C303.185 18.48 302.865 18.3467 302.598 18.08C302.331 17.8133 302.198 17.4933 302.198 17.12C302.198 16.7467 302.331 16.4267 302.598 16.16C302.865 15.8933 303.185 15.76 303.558 15.76C303.931 15.76 304.251 15.8933 304.518 16.16C304.785 16.4267 304.918 16.7467 304.918 17.12C304.918 17.4933 304.785 17.8133 304.518 18.08ZM304.518 23.808C304.251 24.0747 303.931 24.208 303.558 24.208C303.185 24.208 302.865 24.0747 302.598 23.808C302.331 23.5413 302.198 23.2213 302.198 22.848C302.198 22.4747 302.331 22.1547 302.598 21.888C302.865 21.6213 303.185 21.488 303.558 21.488C303.931 21.488 304.251 21.6213 304.518 21.888C304.785 22.1547 304.918 22.4747 304.918 22.848C304.918 23.2213 304.785 23.5413 304.518 23.808ZM310.735 24.224C309.338 24.224 308.239 23.696 307.439 22.64C306.65 21.5733 306.255 20.16 306.255 18.4C306.255 16.64 306.65 15.232 307.439 14.176C308.239 13.1093 309.338 12.576 310.735 12.576C312.143 12.576 313.242 13.1093 314.031 14.176C314.821 15.232 315.215 16.64 315.215 18.4C315.215 20.16 314.821 21.5733 314.031 22.64C313.242 23.696 312.143 24.224 310.735 24.224ZM309.039 21.136C309.423 21.7547 309.989 22.064 310.735 22.064C311.482 22.064 312.047 21.7493 312.431 21.12C312.826 20.4907 313.023 19.584 313.023 18.4C313.023 17.2053 312.826 16.2933 312.431 15.664C312.047 15.0347 311.482 14.72 310.735 14.72C309.989 14.72 309.423 15.0347 309.039 15.664C308.655 16.2933 308.463 17.2053 308.463 18.4C308.463 19.5947 308.655 20.5067 309.039 21.136ZM320.813 24.224C319.416 24.224 318.317 23.696 317.517 22.64C316.728 21.5733 316.333 20.16 316.333 18.4C316.333 16.64 316.728 15.232 317.517 14.176C318.317 13.1093 319.416 12.576 320.813 12.576C322.221 12.576 323.32 13.1093 324.109 14.176C324.899 15.232 325.293 16.64 325.293 18.4C325.293 20.16 324.899 21.5733 324.109 22.64C323.32 23.696 322.221 24.224 320.813 24.224ZM319.117 21.136C319.501 21.7547 320.067 22.064 320.813 22.064C321.56 22.064 322.125 21.7493 322.509 21.12C322.904 20.4907 323.101 19.584 323.101 18.4C323.101 17.2053 322.904 16.2933 322.509 15.664C322.125 15.0347 321.56 14.72 320.813 14.72C320.067 14.72 319.501 15.0347 319.117 15.664C318.733 16.2933 318.541 17.2053 318.541 18.4C318.541 19.5947 318.733 20.5067 319.117 21.136Z" fill="#1F45F5"/>
<path d="M310.214 59.8H312.134V71H309.926V62.136L307.814 62.728L307.27 60.84L310.214 59.8ZM316.401 59.8H318.321V71H316.113V62.136L314.001 62.728L313.457 60.84L316.401 59.8ZM322.573 65.08C322.306 65.3467 321.986 65.48 321.613 65.48C321.239 65.48 320.919 65.3467 320.653 65.08C320.386 64.8133 320.253 64.4933 320.253 64.12C320.253 63.7467 320.386 63.4267 320.653 63.16C320.919 62.8933 321.239 62.76 321.613 62.76C321.986 62.76 322.306 62.8933 322.573 63.16C322.839 63.4267 322.973 63.7467 322.973 64.12C322.973 64.4933 322.839 64.8133 322.573 65.08ZM322.573 70.808C322.306 71.0747 321.986 71.208 321.613 71.208C321.239 71.208 320.919 71.0747 320.653 70.808C320.386 70.5413 320.253 70.2213 320.253 69.848C320.253 69.4747 320.386 69.1547 320.653 68.888C320.919 68.6213 321.239 68.488 321.613 68.488C321.986 68.488 322.306 68.6213 322.573 68.888C322.839 69.1547 322.973 69.4747 322.973 69.848C322.973 70.2213 322.839 70.5413 322.573 70.808ZM328.79 71.224C327.393 71.224 326.294 70.696 325.494 69.64C324.705 68.5733 324.31 67.16 324.31 65.4C324.31 63.64 324.705 62.232 325.494 61.176C326.294 60.1093 327.393 59.576 328.79 59.576C330.198 59.576 331.297 60.1093 332.086 61.176C332.875 62.232 333.27 63.64 333.27 65.4C333.27 67.16 332.875 68.5733 332.086 69.64C331.297 70.696 330.198 71.224 328.79 71.224ZM327.094 68.136C327.478 68.7547 328.043 69.064 328.79 69.064C329.537 69.064 330.102 68.7493 330.486 68.12C330.881 67.4907 331.078 66.584 331.078 65.4C331.078 64.2053 330.881 63.2933 330.486 62.664C330.102 62.0347 329.537 61.72 328.79 61.72C328.043 61.72 327.478 62.0347 327.094 62.664C326.71 63.2933 326.518 64.2053 326.518 65.4C326.518 66.5947 326.71 67.5067 327.094 68.136ZM338.868 71.224C337.471 71.224 336.372 70.696 335.572 69.64C334.783 68.5733 334.388 67.16 334.388 65.4C334.388 63.64 334.783 62.232 335.572 61.176C336.372 60.1093 337.471 59.576 338.868 59.576C340.276 59.576 341.375 60.1093 342.164 61.176C342.953 62.232 343.348 63.64 343.348 65.4C343.348 67.16 342.953 68.5733 342.164 69.64C341.375 70.696 340.276 71.224 338.868 71.224ZM337.172 68.136C337.556 68.7547 338.121 69.064 338.868 69.064C339.615 69.064 340.18 68.7493 340.564 68.12C340.959 67.4907 341.156 66.584 341.156 65.4C341.156 64.2053 340.959 63.2933 340.564 62.664C340.18 62.0347 339.615 61.72 338.868 61.72C338.121 61.72 337.556 62.0347 337.172 62.664C336.788 63.2933 336.596 64.2053 336.596 65.4C336.596 66.5947 336.788 67.5067 337.172 68.136Z" fill="#1F45F5"/>
<path d="M288.558 105.8H290.478V117H288.27V108.136L286.158 108.728L285.614 106.84L288.558 105.8ZM292.057 117V115.352L295.881 111.416C296.734 110.52 297.161 109.773 297.161 109.176C297.161 108.739 297.022 108.387 296.745 108.12C296.478 107.853 296.132 107.72 295.705 107.72C294.862 107.72 294.238 108.157 293.833 109.032L291.977 107.944C292.329 107.176 292.836 106.589 293.497 106.184C294.158 105.779 294.884 105.576 295.673 105.576C296.686 105.576 297.556 105.896 298.281 106.536C299.006 107.165 299.369 108.019 299.369 109.096C299.369 110.259 298.756 111.453 297.529 112.68L295.337 114.872H299.545V117H292.057ZM303.229 111.08C302.962 111.347 302.642 111.48 302.269 111.48C301.896 111.48 301.576 111.347 301.309 111.08C301.042 110.813 300.909 110.493 300.909 110.12C300.909 109.747 301.042 109.427 301.309 109.16C301.576 108.893 301.896 108.76 302.269 108.76C302.642 108.76 302.962 108.893 303.229 109.16C303.496 109.427 303.629 109.747 303.629 110.12C303.629 110.493 303.496 110.813 303.229 111.08ZM303.229 116.808C302.962 117.075 302.642 117.208 302.269 117.208C301.896 117.208 301.576 117.075 301.309 116.808C301.042 116.541 300.909 116.221 300.909 115.848C300.909 115.475 301.042 115.155 301.309 114.888C301.576 114.621 301.896 114.488 302.269 114.488C302.642 114.488 302.962 114.621 303.229 114.888C303.496 115.155 303.629 115.475 303.629 115.848C303.629 116.221 303.496 116.541 303.229 116.808ZM309.446 117.224C308.049 117.224 306.95 116.696 306.15 115.64C305.361 114.573 304.966 113.16 304.966 111.4C304.966 109.64 305.361 108.232 306.15 107.176C306.95 106.109 308.049 105.576 309.446 105.576C310.854 105.576 311.953 106.109 312.742 107.176C313.532 108.232 313.926 109.64 313.926 111.4C313.926 113.16 313.532 114.573 312.742 115.64C311.953 116.696 310.854 117.224 309.446 117.224ZM307.75 114.136C308.134 114.755 308.7 115.064 309.446 115.064C310.193 115.064 310.758 114.749 311.142 114.12C311.537 113.491 311.734 112.584 311.734 111.4C311.734 110.205 311.537 109.293 311.142 108.664C310.758 108.035 310.193 107.72 309.446 107.72C308.7 107.72 308.134 108.035 307.75 108.664C307.366 109.293 307.174 110.205 307.174 111.4C307.174 112.595 307.366 113.507 307.75 114.136ZM319.524 117.224C318.127 117.224 317.028 116.696 316.228 115.64C315.439 114.573 315.044 113.16 315.044 111.4C315.044 109.64 315.439 108.232 316.228 107.176C317.028 106.109 318.127 105.576 319.524 105.576C320.932 105.576 322.031 106.109 322.82 107.176C323.61 108.232 324.004 109.64 324.004 111.4C324.004 113.16 323.61 114.573 322.82 115.64C322.031 116.696 320.932 117.224 319.524 117.224ZM317.828 114.136C318.212 114.755 318.778 115.064 319.524 115.064C320.271 115.064 320.836 114.749 321.22 114.12C321.615 113.491 321.812 112.584 321.812 111.4C321.812 110.205 321.615 109.293 321.22 108.664C320.836 108.035 320.271 107.72 319.524 107.72C318.778 107.72 318.212 108.035 317.828 108.664C317.444 109.293 317.252 110.205 317.252 111.4C317.252 112.595 317.444 113.507 317.828 114.136Z" fill="#1F45F5"/>
<path d="M288.526 150.8H290.446V162H288.238V153.136L286.126 153.728L285.582 151.84L288.526 150.8ZM297.242 155.344C297.999 155.568 298.612 155.963 299.082 156.528C299.562 157.083 299.802 157.755 299.802 158.544C299.802 159.696 299.412 160.597 298.634 161.248C297.866 161.899 296.922 162.224 295.802 162.224C294.927 162.224 294.143 162.027 293.45 161.632C292.767 161.227 292.271 160.635 291.962 159.856L293.85 158.768C294.127 159.632 294.778 160.064 295.802 160.064C296.367 160.064 296.804 159.931 297.114 159.664C297.434 159.387 297.594 159.013 297.594 158.544C297.594 158.085 297.434 157.717 297.114 157.44C296.804 157.163 296.367 157.024 295.802 157.024H295.322L294.474 155.744L296.682 152.864H292.298V150.8H299.338V152.624L297.242 155.344ZM303.26 156.08C302.994 156.347 302.674 156.48 302.3 156.48C301.927 156.48 301.607 156.347 301.34 156.08C301.074 155.813 300.94 155.493 300.94 155.12C300.94 154.747 301.074 154.427 301.34 154.16C301.607 153.893 301.927 153.76 302.3 153.76C302.674 153.76 302.994 153.893 303.26 154.16C303.527 154.427 303.66 154.747 303.66 155.12C303.66 155.493 303.527 155.813 303.26 156.08ZM303.26 161.808C302.994 162.075 302.674 162.208 302.3 162.208C301.927 162.208 301.607 162.075 301.34 161.808C301.074 161.541 300.94 161.221 300.94 160.848C300.94 160.475 301.074 160.155 301.34 159.888C301.607 159.621 301.927 159.488 302.3 159.488C302.674 159.488 302.994 159.621 303.26 159.888C303.527 160.155 303.66 160.475 303.66 160.848C303.66 161.221 303.527 161.541 303.26 161.808ZM309.478 162.224C308.08 162.224 306.982 161.696 306.182 160.64C305.392 159.573 304.998 158.16 304.998 156.4C304.998 154.64 305.392 153.232 306.182 152.176C306.982 151.109 308.08 150.576 309.478 150.576C310.886 150.576 311.984 151.109 312.774 152.176C313.563 153.232 313.958 154.64 313.958 156.4C313.958 158.16 313.563 159.573 312.774 160.64C311.984 161.696 310.886 162.224 309.478 162.224ZM307.782 159.136C308.166 159.755 308.731 160.064 309.478 160.064C310.224 160.064 310.79 159.749 311.174 159.12C311.568 158.491 311.766 157.584 311.766 156.4C311.766 155.205 311.568 154.293 311.174 153.664C310.79 153.035 310.224 152.72 309.478 152.72C308.731 152.72 308.166 153.035 307.782 153.664C307.398 154.293 307.206 155.205 307.206 156.4C307.206 157.595 307.398 158.507 307.782 159.136ZM319.556 162.224C318.158 162.224 317.06 161.696 316.26 160.64C315.47 159.573 315.076 158.16 315.076 156.4C315.076 154.64 315.47 153.232 316.26 152.176C317.06 151.109 318.158 150.576 319.556 150.576C320.964 150.576 322.062 151.109 322.852 152.176C323.641 153.232 324.036 154.64 324.036 156.4C324.036 158.16 323.641 159.573 322.852 160.64C322.062 161.696 320.964 162.224 319.556 162.224ZM317.86 159.136C318.244 159.755 318.809 160.064 319.556 160.064C320.302 160.064 320.868 159.749 321.252 159.12C321.646 158.491 321.844 157.584 321.844 156.4C321.844 155.205 321.646 154.293 321.252 153.664C320.868 153.035 320.302 152.72 319.556 152.72C318.809 152.72 318.244 153.035 317.86 153.664C317.476 154.293 317.284 155.205 317.284 156.4C317.284 157.595 317.476 158.507 317.86 159.136Z" fill="#1F45F5"/>
</svg>
