<svg width="349" height="270" viewBox="0 0 349 270" fill="none" xmlns="http://www.w3.org/2000/svg">
<ellipse cx="97.5" cy="261.5" rx="83.5" ry="8.5" fill="#436DEA"/>
<circle cx="97.5" cy="161.5" r="97.5" fill="#F4E07C"/>
<path d="M19 177C19.5642 192.126 28.3112 217.815 51.5879 222.799C81.7914 229.267 92.6406 207.673 107.03 203.891C118.542 200.866 128.473 209.074 132 213.556" stroke="#FFF5D0" stroke-width="6" stroke-linecap="round"/>
<path d="M98 209C104.894 203.421 111.021 202.226 116 203.421" stroke="#436DEA" stroke-width="6" stroke-linecap="round"/>
<path d="M195 161.373C195 215.444 151.096 258.984 96.2159 258.984C84.8447 258.984 173.229 262.365 173.229 170.278C173.229 78.1912 44.5126 64 98.0187 64C151.525 64 195 107.302 195 161.373Z" fill="#EFD161"/>
<path d="M185.145 167.911C173.438 170.588 151.969 169.208 143.404 152.522C132.29 130.87 146.626 118.181 146.591 106.457C146.562 97.0773 138.248 91.2064 134.094 89.4434" stroke="#FFF5D0" stroke-width="6" stroke-linecap="round"/>
<ellipse rx="17.5" ry="24.5" transform="matrix(-1 -9.11322e-09 -9.11322e-09 1 113.5 117.5)" fill="white"/>
<ellipse rx="18" ry="24.5" transform="matrix(-1 -9.11322e-09 -9.11322e-09 1 82 117.5)" fill="white"/>
<ellipse rx="23.5" ry="32.5" transform="matrix(-1 -9.11322e-09 -9.11322e-09 1 97.5 157.5)" fill="white"/>
<path d="M106 162C106 162 103.086 166 97.7433 166C92.4005 166 89 162 89 162" stroke="black" stroke-width="5" stroke-linecap="round"/>
<path d="M91 114C91 114 87.9148 118 82.2576 118C76.6005 118 73 114 73 114" stroke="black" stroke-width="5" stroke-linecap="round"/>
<path d="M123 114C123 114 119.915 118 114.258 118C108.601 118 105 114 105 114" stroke="black" stroke-width="5" stroke-linecap="round"/>
<mask id="path-13-inside-1_270_3" fill="white">
<path d="M75.3486 48.4832C76.8338 46.6765 78.6868 45.2068 80.7842 44.1719C82.8816 43.137 85.1754 42.5607 87.5128 42.4814C89.8503 42.402 92.1779 42.8214 94.3407 43.7116C96.5035 44.6018 98.4518 45.9424 100.056 47.6442C101.661 49.346 102.884 51.37 103.645 53.5814C104.406 55.7929 104.688 58.1412 104.471 60.4699C104.254 62.7986 103.544 65.0544 102.387 67.0872C101.23 69.12 99.6541 70.8832 97.763 72.2594L93.2742 66.0911C94.2894 65.3523 95.1356 64.4058 95.7565 63.3146C96.3774 62.2233 96.7588 61.0124 96.8753 59.7623C96.9917 58.5121 96.8406 57.2516 96.432 56.0644C96.0233 54.8772 95.3665 53.7907 94.5053 52.8771C93.644 51.9636 92.5981 51.2439 91.4371 50.766C90.276 50.2881 89.0266 50.063 87.7717 50.1056C86.5169 50.1482 85.2856 50.4576 84.1597 51.0131C83.0337 51.5687 82.039 52.3576 81.2417 53.3275L75.3486 48.4832Z"/>
</mask>
<path d="M75.3486 48.4832C76.8338 46.6765 78.6868 45.2068 80.7842 44.1719C82.8816 43.137 85.1754 42.5607 87.5128 42.4814C89.8503 42.402 92.1779 42.8214 94.3407 43.7116C96.5035 44.6018 98.4518 45.9424 100.056 47.6442C101.661 49.346 102.884 51.37 103.645 53.5814C104.406 55.7929 104.688 58.1412 104.471 60.4699C104.254 62.7986 103.544 65.0544 102.387 67.0872C101.23 69.12 99.6541 70.8832 97.763 72.2594L93.2742 66.0911C94.2894 65.3523 95.1356 64.4058 95.7565 63.3146C96.3774 62.2233 96.7588 61.0124 96.8753 59.7623C96.9917 58.5121 96.8406 57.2516 96.432 56.0644C96.0233 54.8772 95.3665 53.7907 94.5053 52.8771C93.644 51.9636 92.5981 51.2439 91.4371 50.766C90.276 50.2881 89.0266 50.063 87.7717 50.1056C86.5169 50.1482 85.2856 50.4576 84.1597 51.0131C83.0337 51.5687 82.039 52.3576 81.2417 53.3275L75.3486 48.4832Z" stroke="#EFD161" stroke-width="18" stroke-linejoin="round" mask="url(#path-13-inside-1_270_3)"/>
<ellipse cx="78" cy="51.5" rx="4" ry="3.5" fill="#EFD161"/>
<mask id="path-15-inside-2_270_3" fill="white">
<path d="M66.253 38.6637C71.0454 32.8337 77.8814 29.0516 85.3667 28.0886C92.8519 27.1257 100.423 29.0546 106.535 33.4818C112.647 37.909 116.839 44.5011 118.258 51.9135C119.677 59.3259 118.214 67.0003 114.169 73.3714L106.318 68.3866C109.094 64.0146 110.098 58.7481 109.124 53.6614C108.151 48.5748 105.274 44.0511 101.079 41.0129C96.8851 37.9748 91.6898 36.6512 86.5532 37.312C81.4165 37.9728 76.7254 40.5682 73.4367 44.5689L66.253 38.6637Z"/>
</mask>
<path d="M66.253 38.6637C71.0454 32.8337 77.8814 29.0516 85.3667 28.0886C92.8519 27.1257 100.423 29.0546 106.535 33.4818C112.647 37.909 116.839 44.5011 118.258 51.9135C119.677 59.3259 118.214 67.0003 114.169 73.3714L106.318 68.3866C109.094 64.0146 110.098 58.7481 109.124 53.6614C108.151 48.5748 105.274 44.0511 101.079 41.0129C96.8851 37.9748 91.6898 36.6512 86.5532 37.312C81.4165 37.9728 76.7254 40.5682 73.4367 44.5689L66.253 38.6637Z" stroke="#EFD161" stroke-width="18" stroke-linejoin="round" mask="url(#path-15-inside-2_270_3)"/>
<ellipse cx="69.5" cy="42" rx="4.5" ry="5" fill="#EFD161"/>
<rect x="96.7544" y="200.636" width="16.8707" height="6.21553" rx="3.10777" transform="rotate(-14.6939 96.7544 200.636)" fill="#1F45F5"/>
<path d="M167 26C167 22.6863 169.686 20 173 20H333C336.314 20 339 22.6863 339 26V120C339 123.314 336.314 126 333 126H173C169.686 126 167 123.314 167 120V26Z" fill="#436DEA"/>
<path d="M253 143V0" stroke="#1F45F5" stroke-width="2"/>
<path d="M349 73L165 73" stroke="#1F45F5" stroke-width="2"/>
<ellipse cx="295.084" cy="64.6425" rx="14.2011" ry="2.07821" fill="#3A5DCC"/>
<circle cx="295.689" cy="47.0704" r="17.3712" fill="#6A70BB"/>
<path d="M313.078 47.0281C313.078 56.6508 305.258 64.3994 295.481 64.3994C293.456 64.3994 309.2 65.001 309.2 48.6129C309.2 32.2248 286.271 29.6993 295.803 29.6993C305.334 29.6993 313.078 37.4054 313.078 47.0281Z" fill="#646BB8"/>
<ellipse cx="290.85" cy="37.8537" rx="4.36162" ry="4.36162" fill="#7289F8"/>
<ellipse cx="298.37" cy="37.8537" rx="4.51202" ry="4.36162" fill="#7289F8"/>
<ellipse cx="294.61" cy="44.9225" rx="5.56482" ry="5.71522" fill="#7289F8"/>
<path d="M293.006 45.9386C293.006 45.9386 293.6 46.6313 294.688 46.6313C295.777 46.6313 296.47 45.9386 296.47 45.9386" stroke="#142B9A" stroke-linecap="round"/>
<path d="M299.933 38.4917C299.933 38.4917 299.414 37.7989 298.375 37.7989C297.335 37.7989 296.816 38.3185 296.816 38.3185" stroke="#142B9A" stroke-linecap="round"/>
<path d="M292.313 38.4917C292.313 38.4917 291.794 37.7989 290.754 37.7989C289.715 37.7989 289.196 38.3185 289.196 38.3185" stroke="#142B9A" stroke-linecap="round"/>
<mask id="mask0_270_3" style="mask-type:alpha" maskUnits="userSpaceOnUse" x="278" y="29" width="36" height="36">
<path d="M313.201 47.0304C313.201 56.6242 305.423 64.4015 295.83 64.4015C286.236 64.4015 278.458 56.6242 278.458 47.0304C278.458 37.4366 286.236 29.6592 295.83 29.6592C305.423 29.6592 313.201 37.4366 313.201 47.0304Z" fill="#6A70BB"/>
</mask>
<g mask="url(#mask0_270_3)">
<path d="M290.285 53.1602L279.762 52.307C278.805 52.2294 277.928 52.8426 277.671 53.7678C277.205 55.4472 276.656 57.4083 276.554 57.7151C276.38 58.2347 281.056 67.5866 281.056 67.933C281.056 68.199 298.825 65.6135 308.776 64.1294C309.517 64.0188 310.129 63.5035 310.369 62.7937L312.894 55.334C313.333 54.0372 312.369 52.6928 311 52.6928H298.028C297.841 52.6928 296.74 53.7542 295.709 54.7977C294.962 55.5528 293.759 55.6184 292.95 54.9308L291.419 53.6298C291.1 53.3584 290.703 53.1941 290.285 53.1602Z" fill="#7289F8"/>
</g>
<circle cx="294.565" cy="57.8883" r="0.519554" fill="#142B9A"/>
<circle cx="294.565" cy="60.6593" r="0.519554" fill="#142B9A"/>
<path d="M311.839 39.609C312.746 38.9408 313.35 37.9398 313.519 36.8261C313.687 35.7124 313.407 34.5774 312.738 33.6706C312.07 32.7638 311.069 32.1597 309.956 31.991C308.842 31.8223 307.707 32.1029 306.8 32.7711L309.32 36.1901L311.839 39.609Z" fill="#1F45F5"/>
<path d="M279.884 39.3425C278.978 38.6743 278.373 37.6733 278.205 36.5596C278.036 35.4459 278.317 34.3109 278.985 33.4041C279.653 32.4973 280.654 31.8931 281.768 31.7245C282.882 31.5558 284.017 31.8364 284.923 32.5046L282.404 35.9236L279.884 39.3425Z" fill="#1F45F5"/>
<rect x="305.527" y="32.4387" width="1.88677" height="10.2913" rx="0.943384" transform="rotate(-31.4948 305.527 32.4387)" fill="#3D68F3"/>
<rect width="1.88677" height="10.2913" rx="0.943384" transform="matrix(-0.852688 -0.522421 -0.522421 0.852688 286.196 32.1722)" fill="#3D68F3"/>
<path d="M285.039 32.0838C286.203 28.8955 290.615 21.4947 296.179 21.0368C304.367 20.3632 305.709 29.12 306.514 32.0838" stroke="#3D68F3" stroke-linecap="round"/>
<ellipse cx="211.708" cy="115.74" rx="13.5" ry="2" fill="#3A5DCC"/>
<ellipse cx="295.708" cy="115.74" rx="13.5" ry="2" fill="#3A5DCC"/>
<rect x="210.819" y="77.6407" width="1.80633" height="6.2159" rx="0.903164" transform="rotate(11.1576 210.819 77.6407)" fill="#646BB8"/>
<rect x="212.878" y="78.6232" width="1.80633" height="6.2159" rx="0.903164" transform="rotate(11.1576 212.878 78.6232)" fill="#646BB8"/>
<ellipse cx="211.972" cy="99.1018" rx="16.4884" ry="16.4884" fill="#6A70BB"/>
<path d="M228.477 99.0616C228.477 108.195 221.054 115.55 211.774 115.55C209.852 115.55 224.796 116.121 224.796 100.566C224.796 85.0106 203.032 82.6134 212.079 82.6134C221.126 82.6134 228.477 89.9279 228.477 99.0616Z" fill="#646BB8"/>
<circle cx="207.616" cy="90.3014" r="3.45206" fill="#7289F8"/>
<circle cx="213.534" cy="90.3014" r="3.45206" fill="#7289F8"/>
<circle cx="210.575" cy="95.8904" r="4.43836" fill="#7289F8"/>
<path d="M209.425 96.7123C209.425 96.7123 209.875 97.0411 210.702 97.0411C211.529 97.0411 212.055 96.7123 212.055 96.7123" stroke="#142B9A" stroke-linecap="round"/>
<path d="M206.466 90.4657C206.466 90.4657 206.917 90.7945 207.743 90.7945C208.57 90.7945 209.096 90.4657 209.096 90.4657" stroke="#142B9A" stroke-linecap="round"/>
<path d="M212.384 90.4657C212.384 90.4657 212.834 90.7945 213.661 90.7945C214.488 90.7945 215.014 90.4657 215.014 90.4657" stroke="#142B9A" stroke-linecap="round"/>
<rect x="294.819" y="77.6407" width="1.80633" height="6.2159" rx="0.903164" transform="rotate(11.1576 294.819 77.6407)" fill="#646BB8"/>
<rect x="296.878" y="78.6232" width="1.80633" height="6.2159" rx="0.903164" transform="rotate(11.1576 296.878 78.6232)" fill="#646BB8"/>
<ellipse cx="295.972" cy="99.1018" rx="16.4884" ry="16.4884" fill="#6A70BB"/>
<path d="M312.477 99.0616C312.477 108.195 305.054 115.55 295.774 115.55C293.852 115.55 308.796 116.121 308.796 100.566C308.796 85.0106 287.032 82.6134 296.079 82.6134C305.126 82.6134 312.477 89.9279 312.477 99.0616Z" fill="#646BB8"/>
<circle cx="291.616" cy="90.3014" r="3.45206" fill="#7289F8"/>
<circle cx="297.534" cy="90.3014" r="3.45206" fill="#7289F8"/>
<circle cx="294.575" cy="95.8904" r="4.43836" fill="#7289F8"/>
<path d="M293.425 96.7123C293.425 96.7123 293.875 97.0411 294.702 97.0411C295.529 97.0411 296.055 96.7123 296.055 96.7123" stroke="#142B9A" stroke-linecap="round"/>
<path d="M290.466 90.7945C290.466 90.7945 290.917 90.4657 291.743 90.4657C292.57 90.4657 293.096 90.7945 293.096 90.7945" stroke="#142B9A" stroke-linecap="round"/>
<path d="M296.384 90.7945C296.384 90.7945 296.834 90.4657 297.661 90.4657C298.488 90.4657 299.014 90.7945 299.014 90.7945" stroke="#142B9A" stroke-linecap="round"/>
<circle cx="210.708" cy="109.24" r="0.5" fill="#7289F8"/>
<circle cx="210.708" cy="112.24" r="0.5" fill="#7289F8"/>
<path d="M208.44 106.197L210.19 105.874C210.48 105.82 210.779 105.832 211.064 105.907L212.789 106.364C213.506 106.554 214.208 106.013 214.208 105.272C214.208 104.511 213.472 103.967 212.745 104.192L211.234 104.659C210.842 104.78 210.421 104.777 210.029 104.651L208.571 104.18C207.898 103.962 207.208 104.464 207.208 105.172C207.208 105.823 207.799 106.315 208.44 106.197Z" fill="#7289F8"/>
<path fill-rule="evenodd" clip-rule="evenodd" d="M227.779 44.7644C228.001 45.1655 228.074 45.6219 228.098 46.135L228.129 46.8189V51.6009L228.162 52.2855C228.226 53.4036 229.015 54.2302 230.092 54.3006L230.744 54.3343V46.8189L230.776 46.135C230.803 45.6277 230.875 45.1627 231.101 44.7586C231.331 44.3443 231.661 44.0005 232.059 43.7618C232.456 43.523 232.906 43.3978 233.365 43.3987C233.823 43.3996 234.273 43.5265 234.67 43.7667C235.066 44.0069 235.395 44.352 235.624 44.7673C235.846 45.1684 235.916 45.6334 235.942 46.135L235.975 46.8167V51.6009L236.007 52.2855C236.074 53.4093 236.857 54.236 237.938 54.3006L238.589 54.3343V46.135C238.589 44.6851 238.038 43.2946 237.058 42.2692C236.077 41.2438 234.748 40.6675 233.361 40.6669C232.619 40.6661 231.885 40.8309 231.208 41.1503C230.532 41.4697 229.928 41.9363 229.438 42.519C228.948 41.9365 228.344 41.47 227.668 41.1505C226.992 40.831 226.258 40.6659 225.516 40.6662C224.43 40.6662 223.422 41.0106 222.588 41.6055C222.078 41.0114 220.939 40.6662 220.285 40.6662V54.3343L220.939 54.3006C222.033 54.2252 222.824 53.4208 222.866 52.2855L222.901 51.6009V46.8189L222.934 46.135C222.961 45.619 223.03 45.1655 223.253 44.7615C223.483 44.3474 223.813 44.0037 224.21 43.7647C224.607 43.5257 225.058 43.3998 225.516 43.3995C225.974 43.3996 226.425 43.5258 226.822 43.7653C227.219 44.0049 227.549 44.3494 227.779 44.7644ZM183.025 54.3013L183.679 54.3343H193.484L193.452 53.6526C193.363 52.5288 192.602 51.7079 191.524 51.6347L190.87 51.6009H184.988L192.83 43.3988L192.798 42.7178C192.747 41.5826 191.954 40.7623 190.87 40.6999L190.216 40.6691L180.411 40.6662L180.443 41.3501C180.529 42.4631 181.301 43.3012 182.371 43.3658L183.025 43.3995H188.908L181.065 51.6017L181.097 52.2855C181.162 53.4122 181.94 54.2281 183.025 54.3006V54.3013ZM217.719 42.6668C218.326 43.3014 218.807 44.0548 219.136 44.884C219.464 45.7132 219.633 46.602 219.633 47.4995C219.633 48.3971 219.464 49.2858 219.136 50.115C218.807 50.9442 218.326 51.6976 217.719 52.3322C216.492 53.6135 214.829 54.3332 213.095 54.3332C211.361 54.3332 209.698 53.6135 208.472 52.3322C205.919 49.6634 205.919 45.3356 208.472 42.6668C209.078 42.0325 209.798 41.5292 210.591 41.1858C211.384 40.8424 212.233 40.6656 213.091 40.6655C213.95 40.6648 214.801 40.8413 215.595 41.1849C216.389 41.5284 217.111 42.0323 217.719 42.6676V42.6668ZM215.869 44.6022C216.604 45.3715 217.017 46.4145 217.017 47.502C217.017 48.5895 216.604 49.6326 215.869 50.4018C215.133 51.1705 214.135 51.6023 213.095 51.6023C212.055 51.6023 211.057 51.1705 210.322 50.4018C209.586 49.6326 209.173 48.5895 209.173 47.502C209.173 46.4145 209.586 45.3715 210.322 44.6022C211.057 43.8335 212.055 43.4017 213.095 43.4017C214.135 43.4017 215.133 43.8335 215.869 44.6022ZM199.372 40.6655C200.23 40.6657 201.079 40.8426 201.872 41.1862C202.665 41.5297 203.385 42.0331 203.991 42.6676C206.544 45.3356 206.544 49.6642 203.991 52.3322C202.765 53.6135 201.102 54.3332 199.368 54.3332C197.634 54.3332 195.971 53.6135 194.744 52.3322C192.192 49.6634 192.192 45.3356 194.744 42.6668C195.351 42.0325 196.071 41.5292 196.864 41.1858C197.656 40.8424 198.506 40.6656 199.364 40.6655H199.372ZM202.141 44.6008C202.877 45.3701 203.29 46.4133 203.29 47.501C203.29 48.5886 202.877 49.6318 202.141 50.4011C201.406 51.1698 200.408 51.6016 199.368 51.6016C198.328 51.6016 197.33 51.1698 196.594 50.4011C195.859 49.6318 195.446 48.5888 195.446 47.5013C195.446 46.4138 195.859 45.3708 196.594 44.6015C197.33 43.8328 198.328 43.401 199.368 43.401C200.408 43.401 201.406 43.8328 202.141 44.6015V44.6008Z" fill="#1F45F5"/>
</svg>
