<svg width="320" height="83" viewBox="0 0 320 83" fill="none" xmlns="http://www.w3.org/2000/svg">
<mask id="mask0_343_7" style="mask-type:alpha" maskUnits="userSpaceOnUse" x="0" y="0" width="320" height="83">
<rect width="320" height="83" fill="#D9D9D9"/>
</mask>
<g mask="url(#mask0_343_7)">
<path d="M-82 -7.91404C-82 -7.91404 -41.3099 -16.5816 -16.0618 -3.8776C9.18631 8.82638 35.4457 0.849598 53.8286 20.7075C72.2115 40.5653 94.0177 34.8971 127.23 29.343C160.443 23.7888 172.35 30.6384 182.681 39.2298C193.011 47.8193 206.853 11.5294 249.829 19.7003C292.806 27.8713 279.48 2.46938 317.656 -1.6051C355.832 -5.67959 374.971 12.3563 395.863 -5.04889C416.755 -22.454 433 -20.9684 433 -20.9684V416H-81.9954V-7.91404H-82Z" fill="#436DEA"/>
</g>
</svg>
