<svg width="485" height="309" viewBox="0 0 485 309" fill="none" xmlns="http://www.w3.org/2000/svg">
<ellipse cx="193" cy="278.5" rx="98" ry="9.5" fill="#3A5DCC"/>
<ellipse cx="193.499" cy="160.825" rx="115.499" ry="115.499" fill="#F4E07C"/>
<path d="M136.5 178C135.834 196 125.5 226.569 98.0005 232.5C62.3174 240.196 49.5 214.5 32.5 210C18.9 206.4 7.16667 216.167 3 221.5" stroke="#FFF5D0" stroke-width="6" stroke-linecap="round"/>
<path d="M309.117 160.544C309.117 224.524 257.117 276.044 192.117 276.044C178.649 276.044 283.332 280.044 283.332 171.081C283.332 62.1181 130.88 45.3262 194.252 45.3262C257.625 45.3262 309.117 96.5635 309.117 160.544Z" fill="#EFD161"/>
<ellipse rx="21" ry="29" transform="matrix(-1 -9.11322e-09 -9.11322e-09 1 212 107.775)" fill="white"/>
<ellipse rx="22" ry="29" transform="matrix(-1 -9.11322e-09 -9.11322e-09 1 175 107.775)" fill="white"/>
<ellipse rx="27.5" ry="38" transform="matrix(-1 -9.11322e-09 -9.11322e-09 1 193.5 154.775)" fill="white"/>
<path d="M203 161C203 161 199.572 166 193.286 166C187.001 166 183 161 183 161" stroke="black" stroke-width="5" stroke-linecap="round"/>
<path d="M186 102.775C186 102.775 182.401 107.775 175.801 107.775C169.201 107.775 165 102.775 165 102.775" stroke="black" stroke-width="5" stroke-linecap="round"/>
<path d="M223 102.775C223 102.775 219.401 107.775 212.801 107.775C206.201 107.775 202 102.775 202 102.775" stroke="black" stroke-width="5" stroke-linecap="round"/>
<mask id="path-11-inside-1_284_9" fill="white">
<path d="M166.91 25.9731C168.668 23.834 170.862 22.094 173.345 20.8687C175.828 19.6435 178.544 18.9612 181.312 18.8672C184.079 18.7733 186.835 19.2698 189.395 20.3237C191.956 21.3777 194.263 22.9649 196.162 24.9798C198.062 26.9946 199.51 29.3909 200.412 32.0092C201.313 34.6275 201.646 37.4077 201.389 40.1648C201.132 42.9219 200.291 45.5927 198.922 47.9995C197.553 50.4062 195.686 52.4937 193.447 54.123L188.133 46.8201C189.335 45.9454 190.337 44.8248 191.072 43.5328C191.807 42.2408 192.258 40.8071 192.396 39.327C192.534 37.8469 192.355 36.3545 191.871 34.9489C191.388 33.5434 190.61 32.257 189.59 31.1754C188.571 30.0937 187.332 29.2417 185.958 28.6759C184.583 28.1101 183.104 27.8436 181.618 27.894C180.132 27.9445 178.675 28.3107 177.342 28.9685C176.009 29.6262 174.831 30.5603 173.887 31.7086L166.91 25.9731Z"/>
</mask>
<path d="M166.91 25.9731C168.668 23.834 170.862 22.094 173.345 20.8687C175.828 19.6435 178.544 18.9612 181.312 18.8672C184.079 18.7733 186.835 19.2698 189.395 20.3237C191.956 21.3777 194.263 22.9649 196.162 24.9798C198.062 26.9946 199.51 29.3909 200.412 32.0092C201.313 34.6275 201.646 37.4077 201.389 40.1648C201.132 42.9219 200.291 45.5927 198.922 47.9995C197.553 50.4062 195.686 52.4937 193.447 54.123L188.133 46.8201C189.335 45.9454 190.337 44.8248 191.072 43.5328C191.807 42.2408 192.258 40.8071 192.396 39.327C192.534 37.8469 192.355 36.3545 191.871 34.9489C191.388 33.5434 190.61 32.257 189.59 31.1754C188.571 30.0937 187.332 29.2417 185.958 28.6759C184.583 28.1101 183.104 27.8436 181.618 27.894C180.132 27.9445 178.675 28.3107 177.342 28.9685C176.009 29.6262 174.831 30.5603 173.887 31.7086L166.91 25.9731Z" stroke="#EFD161" stroke-width="18" stroke-linejoin="round" mask="url(#path-11-inside-1_284_9)"/>
<circle cx="170.117" cy="29.5" r="4.5" fill="#EFD161"/>
<mask id="path-13-inside-2_284_9" fill="white">
<path d="M156.141 14.3476C161.815 7.44515 169.908 2.96727 178.771 1.82721C187.633 0.687161 196.596 2.97083 203.832 8.21244C211.069 13.4541 216.033 21.2588 217.712 30.0347C219.392 38.8107 217.66 47.8968 212.871 55.4399L203.576 49.5382C206.863 44.3619 208.051 38.1266 206.899 32.1042C205.746 26.0818 202.339 20.726 197.374 17.129C192.408 13.532 186.257 11.9649 180.175 12.7472C174.094 13.5296 168.54 16.6024 164.646 21.3391L156.141 14.3476Z"/>
</mask>
<path d="M156.141 14.3476C161.815 7.44515 169.908 2.96727 178.771 1.82721C187.633 0.687161 196.596 2.97083 203.832 8.21244C211.069 13.4541 216.033 21.2588 217.712 30.0347C219.392 38.8107 217.66 47.8968 212.871 55.4399L203.576 49.5382C206.863 44.3619 208.051 38.1266 206.899 32.1042C205.746 26.0818 202.339 20.726 197.374 17.129C192.408 13.532 186.257 11.9649 180.175 12.7472C174.094 13.5296 168.54 16.6024 164.646 21.3391L156.141 14.3476Z" stroke="#EFD161" stroke-width="18" stroke-linejoin="round" mask="url(#path-13-inside-2_284_9)"/>
<circle cx="160.117" cy="18.5" r="5.5" fill="#EFD161"/>
<path d="M270.5 178C269.834 196 259.5 226.569 232 232.5C196.317 240.196 183.5 214.5 166.5 210C152.9 206.4 141.167 216.167 137 221.5" stroke="#FFF5D0" stroke-width="6" stroke-linecap="round"/>
<path d="M439 233.5L485 226V258.5L439 266V233.5Z" fill="#D09F54"/>
<path d="M420 216L439 233.5V266L420 248.5V216Z" fill="#D9A659"/>
<path d="M420 216L439.5 234L485 226L467 208L420 216Z" fill="#A97F40"/>
<path d="M332 215.5L378 208V240.5L332 248V215.5Z" fill="#D09F54"/>
<path d="M313 198L332 215.5V248L313 230.5V198Z" fill="#D9A659"/>
<path d="M313 198L332.5 216L378 208L360 190L313 198Z" fill="#A97F40"/>
<path d="M389 241.5L435 234V266.5L389 274V241.5Z" fill="#D09F54"/>
<path d="M370 224L389 241.5V274L370 256.5V224Z" fill="#D9A659"/>
<path d="M370 224L389.5 242L435 234L417 216L370 224Z" fill="#A97F40"/>
<path d="M402 204.5L448 197V229.5L402 237V204.5Z" fill="#D09F54"/>
<path d="M383 187L402 204.5V237L383 219.5V187Z" fill="#D9A659"/>
<path d="M383 187L402.5 205L448 197L430 179L383 187Z" fill="#A97F40"/>
<path d="M275.5 228L349 216V268L275.5 280V228Z" fill="#EFB661"/>
<path d="M348.5 216L378.5 244V296L348.5 268V216Z" fill="#D9A659"/>
<path d="M304.5 257L378 245V297L304.5 309V257Z" fill="#D09F54"/>
<path d="M275 229L305 257V309L275 281V229Z" fill="#D9A659"/>
<mask id="mask0_284_9" style="mask-type:alpha" maskUnits="userSpaceOnUse" x="275" y="216" width="104" height="41">
<path d="M275.5 228.5L304.5 257L378.5 244.5L348.5 216L275.5 228.5Z" fill="#D9D9D9"/>
</mask>
<g mask="url(#mask0_284_9)">
<rect x="300" y="248" width="24" height="20" fill="#C9AD46"/>
<ellipse cx="312" cy="248" rx="12" ry="4" fill="#EFD161"/>
<rect x="343" y="244" width="13" height="20" fill="#C9AD46"/>
<ellipse cx="349.5" cy="244" rx="6.5" ry="4" fill="#EFD161"/>
<rect x="329" y="249.167" width="9" height="15.8333" fill="#C9AD46"/>
<ellipse cx="333.5" cy="249.167" rx="4.5" ry="3.16667" fill="#EFD161"/>
</g>
</svg>
