<svg width="634" height="299" viewBox="0 0 634 299" fill="none" xmlns="http://www.w3.org/2000/svg">
<ellipse cx="96.5" cy="278.5" rx="65.5" ry="9.5" fill="#3A5DCC"/>
<ellipse cx="319" cy="278.5" rx="98" ry="9.5" fill="#3A5DCC"/>
<rect x="94.8018" y="87.0403" width="9.09942" height="31.3127" rx="4.54971" transform="rotate(11.1576 94.8018 87.0403)" fill="#D9AD52"/>
<rect x="105.171" y="91.9897" width="9.09942" height="31.3127" rx="4.54971" transform="rotate(11.1576 105.171 91.9897)" fill="#D9AD52"/>
<ellipse cx="100.608" cy="195.151" rx="83.0606" ry="83.0606" fill="#EABB5A"/>
<path d="M183.754 194.949C183.754 240.96 146.358 278.01 99.6138 278.01C89.9283 278.01 165.21 280.886 165.21 202.526C165.21 124.166 55.5752 112.09 101.149 112.09C146.723 112.09 183.754 148.937 183.754 194.949Z" fill="#D9AD52"/>
<ellipse cx="77.4672" cy="151.081" rx="20.8552" ry="20.8552" fill="white"/>
<ellipse cx="113.424" cy="151.081" rx="21.5743" ry="20.8552" fill="white"/>
<ellipse cx="95.4465" cy="184.88" rx="26.6083" ry="27.3275" fill="white"/>
<path d="M81.782 189.195C81.782 189.195 86.7125 196.387 95.7531 196.387C104.794 196.387 110.548 189.195 110.548 189.195" stroke="black" stroke-width="5" stroke-linecap="round"/>
<path d="M68.8381 148.923C68.8381 148.923 72.1662 153.957 78.2687 153.957C84.3711 153.957 88.255 148.923 88.255 148.923" stroke="black" stroke-width="5" stroke-linecap="round"/>
<path d="M103.356 148.923C103.356 148.923 106.808 153.957 113.136 153.957C119.464 153.957 123.492 148.923 123.492 148.923" stroke="black" stroke-width="5" stroke-linecap="round"/>
<path d="M150.5 176.775C159 207.775 145.535 209.678 137 225.053C120.5 254.775 118.166 219.72 114 225.053" stroke="#FFDE9A" stroke-width="6" stroke-linecap="round"/>
<path d="M45.7077 176.775C37.2077 207.775 50.6724 209.678 59.2077 225.053C75.7077 254.775 78.0411 219.72 82.2078 225.053" stroke="#FFDE9A" stroke-width="6" stroke-linecap="round"/>
<ellipse cx="306.882" cy="160.825" rx="115.499" ry="115.499" fill="#F4E07C"/>
<path d="M375.5 178C374.834 196 364.5 226.569 337 232.5C301.317 240.196 288.5 214.5 271.5 210C257.9 206.4 246.167 216.167 242 221.5" stroke="#FFF5D0" stroke-width="6" stroke-linecap="round"/>
<path d="M214 178C214.667 196 225 226.569 252.5 232.5C288.183 240.196 301 214.5 318 210C331.6 206.4 343.334 216.167 347.5 221.5" stroke="#FFF5D0" stroke-width="6" stroke-linecap="round"/>
<path d="M422.5 160.544C422.5 224.524 370.5 276.044 305.5 276.044C292.031 276.044 396.714 280.044 396.714 171.081C396.714 62.1181 244.262 45.3262 307.635 45.3262C371.007 45.3262 422.5 96.5635 422.5 160.544Z" fill="#EFD161"/>
<ellipse rx="21" ry="29" transform="matrix(-1 -9.11322e-09 -9.11322e-09 1 311 107.775)" fill="white"/>
<ellipse rx="22" ry="29" transform="matrix(-1 -9.11322e-09 -9.11322e-09 1 274 107.775)" fill="white"/>
<ellipse rx="27.5" ry="38" transform="matrix(-1 -9.11322e-09 -9.11322e-09 1 292.5 154.775)" fill="white"/>
<path d="M303.296 152.544C303.296 152.544 296.44 162.544 283.869 162.544C271.297 162.544 263.296 152.544 263.296 152.544" stroke="black" stroke-width="5" stroke-linecap="round"/>
<path d="M320 102.775C320 102.775 316.572 107.775 310.286 107.775C304 107.775 300 102.775 300 102.775" stroke="black" stroke-width="5" stroke-linecap="round"/>
<path d="M285 102.775C285 102.775 281.401 107.775 274.801 107.775C268.201 107.775 264 102.775 264 102.775" stroke="black" stroke-width="5" stroke-linecap="round"/>
<path d="M137 261.775H54L38 214.775H154L137 261.775Z" fill="#3A5DCC"/>
<circle cx="92.5" cy="235.5" r="4.5" fill="#6FA5F3"/>
<circle cx="100.5" cy="235.5" r="4.5" fill="#6FA5F3"/>
<circle cx="96.5" cy="242.5" r="5.5" fill="#6FA5F3"/>
<rect x="54" y="261.775" width="83" height="7" fill="#6FA5F3"/>
<rect x="361" y="27.0002" width="236" height="81" rx="40.5" fill="#6FA5F3"/>
<path d="M378.186 93.8763C369.522 87.0296 365.649 70.4645 369.619 65.4402C370.98 62.4819 365.119 74.9402 381.526 91.1781C390.189 98.0247 403.619 101.05 402.597 101.051C396.193 101.051 386.85 100.723 378.186 93.8763Z" fill="#6698E0"/>
<path d="M592 68.4906C592 87.5391 576.743 102.981 557.923 102.981C539.102 102.981 581 108 578.369 64.7763C576.5 44.5002 551 32.0004 557.923 32.5003C576.694 33.8559 592 49.4421 592 68.4906Z" fill="#6698E0"/>
<path d="M405.92 62.5802C406.707 62.5802 407.42 62.4069 408.06 62.0602C408.713 61.7002 409.207 61.2136 409.54 60.6002L411.92 61.9802C411.32 62.9936 410.487 63.8002 409.42 64.4002C408.353 64.9869 407.187 65.2802 405.92 65.2802C403.813 65.2802 402.073 64.5802 400.7 63.1802C399.327 61.7802 398.64 60.0536 398.64 58.0002C398.64 55.9336 399.327 54.2069 400.7 52.8202C402.073 51.4202 403.813 50.7202 405.92 50.7202C407.173 50.7202 408.333 51.0202 409.4 51.6202C410.48 52.2069 411.32 53.0069 411.92 54.0202L409.54 55.4002C409.193 54.7736 408.7 54.2869 408.06 53.9402C407.42 53.5802 406.707 53.4002 405.92 53.4002C404.787 53.4002 403.833 53.7002 403.06 54.3002C402.287 54.8869 401.78 55.6869 401.54 56.7002H407.78V59.2802H401.54C401.78 60.2936 402.287 61.1002 403.06 61.7002C403.833 62.2869 404.787 62.5802 405.92 62.5802ZM420.853 59.8802C421.786 60.3336 422.253 61.0936 422.253 62.1602C422.253 63.0002 421.959 63.6869 421.373 64.2202C420.799 64.7402 419.979 65.0002 418.913 65.0002H413.653V55.0002H418.513C419.566 55.0002 420.379 55.2602 420.953 55.7802C421.539 56.3002 421.833 56.9802 421.833 57.8202C421.833 58.7002 421.506 59.3869 420.853 59.8802ZM418.273 57.1202H416.073V58.9202H418.273C419.006 58.9202 419.373 58.6202 419.373 58.0202C419.373 57.4202 419.006 57.1202 418.273 57.1202ZM418.613 62.8202C419.359 62.8202 419.733 62.5002 419.733 61.8602C419.733 61.5802 419.633 61.3602 419.433 61.2002C419.233 61.0402 418.959 60.9602 418.613 60.9602H416.073V62.8202H418.613ZM430.708 55.0002V57.4802H426.448V65.0002H423.868V55.0002H430.708ZM433.88 61.0602C434.226 62.3136 435.166 62.9402 436.7 62.9402C437.686 62.9402 438.433 62.6069 438.94 61.9402L441.02 63.1402C440.033 64.5669 438.58 65.2802 436.66 65.2802C435.006 65.2802 433.68 64.7802 432.68 63.7802C431.68 62.7802 431.18 61.5202 431.18 60.0002C431.18 58.4936 431.673 57.2402 432.66 56.2402C433.646 55.2269 434.913 54.7202 436.46 54.7202C437.926 54.7202 439.133 55.2269 440.08 56.2402C441.04 57.2536 441.52 58.5069 441.52 60.0002C441.52 60.3336 441.486 60.6869 441.42 61.0602H433.88ZM433.84 59.0602H438.94C438.793 58.3802 438.486 57.8736 438.02 57.5402C437.566 57.2069 437.046 57.0402 436.46 57.0402C435.766 57.0402 435.193 57.2202 434.74 57.5802C434.286 57.9269 433.986 58.4202 433.84 59.0602ZM449.881 55.0002H452.461V65.0002H449.881V61.2002H445.901V65.0002H443.321V55.0002H445.901V58.7802H449.881V55.0002ZM465.165 51.0002C466.511 51.0002 467.645 51.4536 468.565 52.3602C469.485 53.2669 469.945 54.3802 469.945 55.7002C469.945 57.0202 469.485 58.1336 468.565 59.0402C467.645 59.9469 466.511 60.4002 465.165 60.4002H462.705V65.0002H459.945V51.0002H465.165ZM465.165 57.8202C465.751 57.8202 466.238 57.6202 466.625 57.2202C467.011 56.8069 467.205 56.3002 467.205 55.7002C467.205 55.0869 467.011 54.5802 466.625 54.1802C466.238 53.7802 465.751 53.5802 465.165 53.5802H462.705V57.8202H465.165ZM478.141 55.0002H480.901L477.261 65.0002C476.248 67.8136 474.488 69.1469 471.981 69.0002V66.6002C472.661 66.6136 473.195 66.4869 473.581 66.2202C473.981 65.9536 474.301 65.5069 474.541 64.8802L470.501 55.0002H473.241L475.921 61.7202L478.141 55.0002ZM490.504 62.5802H491.824V67.6802H489.304V65.0002H483.104V67.6802H480.584V62.5802H481.804C482.378 61.7269 482.664 60.5469 482.664 59.0402V55.0002H490.504V62.5802ZM484.564 62.5802H487.984V57.3202H485.184V59.0402C485.184 60.4536 484.978 61.6336 484.564 62.5802ZM495.247 61.0602C495.593 62.3136 496.533 62.9402 498.067 62.9402C499.053 62.9402 499.8 62.6069 500.307 61.9402L502.387 63.1402C501.4 64.5669 499.947 65.2802 498.027 65.2802C496.373 65.2802 495.047 64.7802 494.047 63.7802C493.047 62.7802 492.547 61.5202 492.547 60.0002C492.547 58.4936 493.04 57.2402 494.027 56.2402C495.013 55.2269 496.28 54.7202 497.827 54.7202C499.293 54.7202 500.5 55.2269 501.447 56.2402C502.407 57.2536 502.887 58.5069 502.887 60.0002C502.887 60.3336 502.853 60.6869 502.787 61.0602H495.247ZM495.207 59.0602H500.307C500.16 58.3802 499.853 57.8736 499.387 57.5402C498.933 57.2069 498.413 57.0402 497.827 57.0402C497.133 57.0402 496.56 57.2202 496.107 57.5802C495.653 57.9269 495.353 58.4202 495.207 59.0602ZM511.248 55.0002H513.828V65.0002H511.248V61.2002H507.268V65.0002H504.688V55.0002H507.268V58.7802H511.248V55.0002ZM525.412 65.0002H522.412L518.772 60.4602V65.0002H516.192V55.0002H518.772V59.4002L522.212 55.0002H525.292L521.272 59.9402L525.412 65.0002ZM534.497 63.7602C533.47 64.7736 532.217 65.2802 530.737 65.2802C529.257 65.2802 528.004 64.7736 526.977 63.7602C525.964 62.7336 525.457 61.4802 525.457 60.0002C525.457 58.5202 525.964 57.2736 526.977 56.2602C528.004 55.2336 529.257 54.7202 530.737 54.7202C532.217 54.7202 533.47 55.2336 534.497 56.2602C535.524 57.2736 536.037 58.5202 536.037 60.0002C536.037 61.4802 535.524 62.7336 534.497 63.7602ZM528.797 61.9802C529.317 62.5002 529.964 62.7602 530.737 62.7602C531.51 62.7602 532.157 62.5002 532.677 61.9802C533.197 61.4602 533.457 60.8002 533.457 60.0002C533.457 59.2002 533.197 58.5402 532.677 58.0202C532.157 57.5002 531.51 57.2402 530.737 57.2402C529.964 57.2402 529.317 57.5002 528.797 58.0202C528.29 58.5402 528.037 59.2002 528.037 60.0002C528.037 60.8002 528.29 61.4602 528.797 61.9802ZM402.704 82.4162C403.479 82.7336 403.866 83.2889 403.866 84.0822C403.866 84.6702 403.633 85.1696 403.166 85.5802C402.699 85.9816 402.037 86.1822 401.178 86.1822C399.778 86.1822 398.84 85.6222 398.364 84.5022L399.386 83.9002C399.657 84.6656 400.259 85.0482 401.192 85.0482C401.659 85.0482 402.018 84.9502 402.27 84.7542C402.531 84.5489 402.662 84.2876 402.662 83.9702C402.662 83.6902 402.555 83.4616 402.34 83.2842C402.135 83.1069 401.855 83.0182 401.5 83.0182H400.478V81.9122H401.234C401.589 81.9122 401.864 81.8282 402.06 81.6602C402.256 81.4829 402.354 81.2449 402.354 80.9462C402.354 80.6476 402.237 80.4049 402.004 80.2182C401.78 80.0316 401.467 79.9382 401.066 79.9382C400.282 79.9382 399.75 80.2696 399.47 80.9322L398.476 80.3582C398.971 79.3316 399.834 78.8182 401.066 78.8182C401.831 78.8182 402.433 79.0142 402.872 79.4062C403.32 79.7982 403.544 80.2789 403.544 80.8482C403.544 81.5576 403.264 82.0802 402.704 82.4162ZM410.982 79.0002H412.2V86.0002H410.982V84.7962C410.375 85.7202 409.493 86.1822 408.336 86.1822C407.356 86.1822 406.52 85.8276 405.83 85.1182C405.139 84.3996 404.794 83.5269 404.794 82.5002C404.794 81.4736 405.139 80.6056 405.83 79.8962C406.52 79.1776 407.356 78.8182 408.336 78.8182C409.493 78.8182 410.375 79.2802 410.982 80.2042V79.0002ZM408.49 85.0062C409.199 85.0062 409.792 84.7682 410.268 84.2922C410.744 83.8069 410.982 83.2096 410.982 82.5002C410.982 81.7909 410.744 81.1982 410.268 80.7222C409.792 80.2369 409.199 79.9942 408.49 79.9942C407.79 79.9942 407.202 80.2369 406.726 80.7222C406.25 81.1982 406.012 81.7909 406.012 82.5002C406.012 83.2096 406.25 83.8069 406.726 84.2922C407.202 84.7682 407.79 85.0062 408.49 85.0062ZM417.335 86.1822C416.28 86.1822 415.403 85.8322 414.703 85.1322C414.003 84.4229 413.653 83.5456 413.653 82.5002C413.653 81.4549 414.003 80.5822 414.703 79.8822C415.403 79.1729 416.28 78.8182 417.335 78.8182C418.026 78.8182 418.646 78.9862 419.197 79.3222C419.748 79.6489 420.158 80.0922 420.429 80.6522L419.407 81.2402C419.23 80.8669 418.954 80.5682 418.581 80.3442C418.217 80.1202 417.802 80.0082 417.335 80.0082C416.635 80.0082 416.047 80.2462 415.571 80.7222C415.104 81.1982 414.871 81.7909 414.871 82.5002C414.871 83.2002 415.104 83.7882 415.571 84.2642C416.047 84.7402 416.635 84.9782 417.335 84.9782C417.802 84.9782 418.222 84.8709 418.595 84.6562C418.968 84.4322 419.253 84.1336 419.449 83.7602L420.485 84.3622C420.186 84.9129 419.757 85.3562 419.197 85.6922C418.637 86.0189 418.016 86.1822 417.335 86.1822ZM426.545 79.0002H427.763V86.0002H426.545V83.0742H422.919V86.0002H421.701V79.0002H422.919V81.9122H426.545V79.0002ZM435.525 85.1182C434.807 85.8276 433.934 86.1822 432.907 86.1822C431.881 86.1822 431.008 85.8276 430.289 85.1182C429.58 84.4089 429.225 83.5362 429.225 82.5002C429.225 81.4642 429.58 80.5916 430.289 79.8822C431.008 79.1729 431.881 78.8182 432.907 78.8182C433.934 78.8182 434.807 79.1729 435.525 79.8822C436.244 80.5916 436.603 81.4642 436.603 82.5002C436.603 83.5362 436.244 84.4089 435.525 85.1182ZM432.907 84.9922C433.607 84.9922 434.195 84.7542 434.671 84.2782C435.147 83.8022 435.385 83.2096 435.385 82.5002C435.385 81.7909 435.147 81.1982 434.671 80.7222C434.195 80.2462 433.607 80.0082 432.907 80.0082C432.217 80.0082 431.633 80.2462 431.157 80.7222C430.681 81.1982 430.443 81.7909 430.443 82.5002C430.443 83.2096 430.681 83.8022 431.157 84.2782C431.633 84.7542 432.217 84.9922 432.907 84.9922ZM442.701 82.4022C443.42 82.7009 443.779 83.2422 443.779 84.0262C443.779 84.6049 443.583 85.0809 443.191 85.4542C442.809 85.8182 442.258 86.0002 441.539 86.0002H438.039V79.0002H441.259C441.959 79.0002 442.501 79.1776 442.883 79.5322C443.266 79.8776 443.457 80.3349 443.457 80.9042C443.457 81.5762 443.205 82.0756 442.701 82.4022ZM441.203 80.0922H439.229V81.9262H441.203C441.913 81.9262 442.267 81.6136 442.267 80.9882C442.267 80.3909 441.913 80.0922 441.203 80.0922ZM441.469 84.8942C441.824 84.8942 442.095 84.8102 442.281 84.6422C442.477 84.4742 442.575 84.2362 442.575 83.9282C442.575 83.6389 442.477 83.4149 442.281 83.2562C442.095 83.0882 441.824 83.0042 441.469 83.0042H439.229V84.8942H441.469ZM449.938 79.0002H451.156V86.0002H449.938V83.0742H446.312V86.0002H445.094V79.0002H446.312V81.9122H449.938V79.0002ZM458.092 79.0002H459.072V86.0002H457.868V81.0862L453.99 86.0002H453.01V79.0002H454.214V83.9142L458.092 79.0002ZM466.848 86.0002H465.336L462.144 82.6822V86.0002H460.926V79.0002H462.144V82.0942L465.168 79.0002H466.736L463.39 82.3882L466.848 86.0002ZM475.429 76.2002C476.763 76.2002 477.869 76.6762 478.747 77.6282C479.633 78.5709 480.077 79.7282 480.077 81.1002C480.077 82.4722 479.633 83.6342 478.747 84.5862C477.869 85.5289 476.763 86.0002 475.429 86.0002H471.607V76.2002H475.429ZM475.429 84.7682C476.427 84.7682 477.244 84.4182 477.879 83.7182C478.513 83.0182 478.831 82.1456 478.831 81.1002C478.831 80.0549 478.513 79.1822 477.879 78.4822C477.244 77.7822 476.427 77.4322 475.429 77.4322H472.909V84.7682H475.429ZM482.957 84.7682H487.507V86.0002H481.655V76.2002H487.437V77.4322H482.957V80.4422H487.087V81.6602H482.957V84.7682ZM490.381 84.7682H494.931V86.0002H489.079V76.2002H494.861V77.4322H490.381V80.4422H494.511V81.6602H490.381V84.7682ZM500.059 76.2002C500.964 76.2002 501.716 76.5036 502.313 77.1102C502.92 77.7076 503.223 78.4542 503.223 79.3502C503.223 80.2369 502.92 80.9836 502.313 81.5902C501.716 82.1969 500.964 82.5002 500.059 82.5002H497.805V86.0002H496.503V76.2002H500.059ZM500.059 81.2822C500.6 81.2822 501.048 81.1002 501.403 80.7362C501.758 80.3629 501.935 79.9009 501.935 79.3502C501.935 78.7902 501.758 78.3282 501.403 77.9642C501.048 77.6002 500.6 77.4182 500.059 77.4182H497.805V81.2822H500.059ZM506.725 86.0002L503.911 76.2002H505.283L507.523 84.2642L509.903 76.2002H511.219L513.599 84.2642L515.839 76.2002H517.211L514.397 86.0002H512.885L510.561 78.1742L508.237 86.0002H506.725ZM526.321 84.6982C525.341 85.6876 524.142 86.1822 522.723 86.1822C521.304 86.1822 520.105 85.6876 519.125 84.6982C518.145 83.7089 517.655 82.5096 517.655 81.1002C517.655 79.6816 518.145 78.4822 519.125 77.5022C520.105 76.5129 521.304 76.0182 522.723 76.0182C524.142 76.0182 525.341 76.5129 526.321 77.5022C527.31 78.4822 527.805 79.6816 527.805 81.1002C527.805 82.5096 527.31 83.7089 526.321 84.6982ZM520.021 83.8162C520.749 84.5442 521.65 84.9082 522.723 84.9082C523.796 84.9082 524.692 84.5442 525.411 83.8162C526.139 83.0789 526.503 82.1736 526.503 81.1002C526.503 80.0176 526.139 79.1122 525.411 78.3842C524.692 77.6469 523.796 77.2782 522.723 77.2782C521.65 77.2782 520.749 77.6469 520.021 78.3842C519.302 79.1122 518.943 80.0176 518.943 81.1002C518.943 82.1736 519.302 83.0789 520.021 83.8162ZM535.18 86.0002L532.982 82.2482H530.672V86.0002H529.37V76.2002H533.29C534.13 76.2002 534.849 76.4989 535.446 77.0962C536.044 77.6842 536.342 78.3982 536.342 79.2382C536.342 79.8729 536.151 80.4516 535.768 80.9742C535.395 81.4969 534.91 81.8656 534.312 82.0802L536.622 86.0002H535.18ZM530.672 77.4182V81.0722H533.29C533.776 81.0722 534.186 80.8949 534.522 80.5402C534.868 80.1762 535.04 79.7422 535.04 79.2382C535.04 78.7342 534.868 78.3049 534.522 77.9502C534.186 77.5956 533.776 77.4182 533.29 77.4182H530.672ZM545.055 86.0002H543.459L539.231 81.2962V86.0002H537.929V76.2002H539.231V80.6242L543.319 76.2002H544.915L540.589 80.9602L545.055 86.0002ZM547.516 84.7682H552.066V86.0002H546.214V76.2002H551.996V77.4322H547.516V80.4422H551.646V81.6602H547.516V84.7682ZM559.448 86.0002L557.25 82.2482H554.94V86.0002H553.638V76.2002H557.558C558.398 76.2002 559.117 76.4989 559.714 77.0962C560.311 77.6842 560.61 78.3982 560.61 79.2382C560.61 79.8729 560.419 80.4516 560.036 80.9742C559.663 81.4969 559.177 81.8656 558.58 82.0802L560.89 86.0002H559.448ZM554.94 77.4182V81.0722H557.558C558.043 81.0722 558.454 80.8949 558.79 80.5402C559.135 80.1762 559.308 79.7422 559.308 79.2382C559.308 78.7342 559.135 78.3049 558.79 77.9502C558.454 77.5956 558.043 77.4182 557.558 77.4182H554.94Z" fill="#152145"/>
<mask id="path-34-inside-1_259_2" fill="white">
<path d="M280.292 25.9731C282.051 23.834 284.244 22.094 286.728 20.8687C289.211 19.6435 291.927 18.9612 294.694 18.8672C297.462 18.7733 300.217 19.2698 302.778 20.3237C305.339 21.3777 307.645 22.9649 309.545 24.9798C311.444 26.9946 312.893 29.3909 313.794 32.0092C314.695 34.6275 315.029 37.4077 314.772 40.1648C314.515 42.9219 313.674 45.5927 312.304 47.9995C310.935 50.4062 309.069 52.4937 306.83 54.123L301.515 46.8201C302.717 45.9454 303.719 44.8248 304.454 43.5328C305.189 42.2408 305.641 40.8071 305.779 39.327C305.917 37.8469 305.738 36.3545 305.254 34.9489C304.77 33.5434 303.993 32.257 302.973 31.1754C301.953 30.0937 300.715 29.2417 299.34 28.6759C297.966 28.1101 296.486 27.8436 295.001 27.894C293.515 27.9445 292.057 28.3107 290.724 28.9685C289.391 29.6262 288.213 30.5603 287.269 31.7086L280.292 25.9731Z"/>
</mask>
<path d="M280.292 25.9731C282.051 23.834 284.244 22.094 286.728 20.8687C289.211 19.6435 291.927 18.9612 294.694 18.8672C297.462 18.7733 300.217 19.2698 302.778 20.3237C305.339 21.3777 307.645 22.9649 309.545 24.9798C311.444 26.9946 312.893 29.3909 313.794 32.0092C314.695 34.6275 315.029 37.4077 314.772 40.1648C314.515 42.9219 313.674 45.5927 312.304 47.9995C310.935 50.4062 309.069 52.4937 306.83 54.123L301.515 46.8201C302.717 45.9454 303.719 44.8248 304.454 43.5328C305.189 42.2408 305.641 40.8071 305.779 39.327C305.917 37.8469 305.738 36.3545 305.254 34.9489C304.77 33.5434 303.993 32.257 302.973 31.1754C301.953 30.0937 300.715 29.2417 299.34 28.6759C297.966 28.1101 296.486 27.8436 295.001 27.894C293.515 27.9445 292.057 28.3107 290.724 28.9685C289.391 29.6262 288.213 30.5603 287.269 31.7086L280.292 25.9731Z" stroke="#EFD161" stroke-width="18" stroke-linejoin="round" mask="url(#path-34-inside-1_259_2)"/>
<circle cx="283.5" cy="29.5" r="4.5" fill="#EFD161"/>
<mask id="path-36-inside-2_259_2" fill="white">
<path d="M269.524 14.3473C275.198 7.44491 283.291 2.96702 292.154 1.82697C301.016 0.686917 309.979 2.97058 317.215 8.2122C324.452 13.4538 329.416 21.2585 331.095 30.0345C332.775 38.8105 331.043 47.8966 326.254 55.4397L316.959 49.538C320.246 44.3616 321.434 38.1264 320.282 32.104C319.129 26.0816 315.723 20.7257 310.757 17.1287C305.791 13.5318 299.64 11.9646 293.558 12.747C287.477 13.5293 281.923 16.6022 278.029 21.3389L269.524 14.3473Z"/>
</mask>
<path d="M269.524 14.3473C275.198 7.44491 283.291 2.96702 292.154 1.82697C301.016 0.686917 309.979 2.97058 317.215 8.2122C324.452 13.4538 329.416 21.2585 331.095 30.0345C332.775 38.8105 331.043 47.8966 326.254 55.4397L316.959 49.538C320.246 44.3616 321.434 38.1264 320.282 32.104C319.129 26.0816 315.723 20.7257 310.757 17.1287C305.791 13.5318 299.64 11.9646 293.558 12.747C287.477 13.5293 281.923 16.6022 278.029 21.3389L269.524 14.3473Z" stroke="#EFD161" stroke-width="18" stroke-linejoin="round" mask="url(#path-36-inside-2_259_2)"/>
<circle cx="273.5" cy="18.5" r="5.5" fill="#EFD161"/>
</svg>
