<?xml version="1.0" encoding="utf-8"?>
<!-- Generator: Adobe Illustrator 25.4.1, SVG Export Plug-In . SVG Version: 6.00 Build 0)  -->
<svg version="1.1" id="Слой_1" xmlns="http://www.w3.org/2000/svg" xmlns:xlink="http://www.w3.org/1999/xlink" x="0px" y="0px"
	 viewBox="0 0 22 14" enable-background="new 0 0 22 14" xml:space="preserve">
<path d="M8,14c-0.3,0-0.5-0.1-0.7-0.3l-6-6c0,0,0,0,0,0c0,0,0,0,0,0c0,0,0,0,0,0c0,0,0,0,0,0c0,0,0,0,0,0l0,0c0,0,0,0,0,0l0,0
	C1.2,7.6,1.1,7.5,1.1,7.4c0,0,0,0,0,0c0,0,0,0,0,0c0,0,0,0,0,0c0,0,0,0,0,0c0,0,0,0,0,0l0,0v0l0,0C1,7.3,1,7.1,1,7l0,0c0,0,0,0,0,0
	l0,0l0,0c0,0,0,0,0,0l0,0c0,0,0,0,0,0l0,0l0,0c0-0.1,0-0.3,0.1-0.4c0-0.1,0.1-0.2,0.2-0.3l6-6c0.4-0.4,1-0.4,1.4,0s0.4,1,0,1.4
	L4.4,6H21c0.6,0,1,0.4,1,1s-0.4,1-1,1H4.4l4.3,4.3c0.4,0.4,0.4,1,0,1.4C8.5,13.9,8.3,14,8,14z"/>
</svg>
