<svg width="445" height="299" viewBox="0 0 445 299" fill="none" xmlns="http://www.w3.org/2000/svg">
<ellipse cx="96.5" cy="278.5" rx="65.5" ry="9.5" fill="#3A5DCC"/>
<ellipse cx="319" cy="278.5" rx="98" ry="9.5" fill="#3A5DCC"/>
<rect x="94.8018" y="87.0403" width="9.09942" height="31.3127" rx="4.54971" transform="rotate(11.1576 94.8018 87.0403)" fill="#D9AD52"/>
<rect x="105.171" y="91.9897" width="9.09942" height="31.3127" rx="4.54971" transform="rotate(11.1576 105.171 91.9897)" fill="#D9AD52"/>
<ellipse cx="100.608" cy="195.151" rx="83.0606" ry="83.0606" fill="#EABB5A"/>
<path d="M183.754 194.949C183.754 240.96 146.358 278.01 99.6138 278.01C89.9283 278.01 165.21 280.886 165.21 202.526C165.21 124.166 55.5752 112.09 101.149 112.09C146.723 112.09 183.754 148.937 183.754 194.949Z" fill="#D9AD52"/>
<ellipse cx="77.4672" cy="151.081" rx="20.8552" ry="20.8552" fill="white"/>
<ellipse cx="113.424" cy="151.081" rx="21.5743" ry="20.8552" fill="white"/>
<ellipse cx="95.4465" cy="184.88" rx="26.6083" ry="27.3275" fill="white"/>
<path d="M81.782 189.195C81.782 189.195 86.7125 196.387 95.7531 196.387C104.794 196.387 110.548 189.195 110.548 189.195" stroke="black" stroke-width="5" stroke-linecap="round"/>
<path d="M68.8381 148.923C68.8381 148.923 72.1662 153.957 78.2687 153.957C84.3711 153.957 88.255 148.923 88.255 148.923" stroke="black" stroke-width="5" stroke-linecap="round"/>
<path d="M103.356 148.923C103.356 148.923 106.808 153.957 113.136 153.957C119.464 153.957 123.492 148.923 123.492 148.923" stroke="black" stroke-width="5" stroke-linecap="round"/>
<path d="M150.5 176.775C159 207.775 145.535 209.678 137 225.053C120.5 254.775 118.166 219.72 114 225.053" stroke="#FFDE9A" stroke-width="6" stroke-linecap="round"/>
<path d="M45.7077 176.775C37.2077 207.775 50.6724 209.678 59.2077 225.053C75.7077 254.775 78.0411 219.72 82.2078 225.053" stroke="#FFDE9A" stroke-width="6" stroke-linecap="round"/>
<ellipse cx="306.882" cy="160.825" rx="115.499" ry="115.499" fill="#F4E07C"/>
<path d="M375.5 178C374.834 196 364.5 226.569 337 232.5C301.317 240.196 288.5 214.5 271.5 210C257.9 206.4 246.167 216.167 242 221.5" stroke="#FFF5D0" stroke-width="6" stroke-linecap="round"/>
<path d="M214 178C214.667 196 225 226.569 252.5 232.5C288.183 240.196 301 214.5 318 210C331.6 206.4 343.334 216.167 347.5 221.5" stroke="#FFF5D0" stroke-width="6" stroke-linecap="round"/>
<path d="M422.5 160.544C422.5 224.524 370.5 276.044 305.5 276.044C292.031 276.044 396.714 280.044 396.714 171.081C396.714 62.1181 244.262 45.3262 307.635 45.3262C371.007 45.3262 422.5 96.5635 422.5 160.544Z" fill="#EFD161"/>
<ellipse rx="21" ry="29" transform="matrix(-1 -9.11322e-09 -9.11322e-09 1 311 107.775)" fill="white"/>
<ellipse rx="22" ry="29" transform="matrix(-1 -9.11322e-09 -9.11322e-09 1 274 107.775)" fill="white"/>
<ellipse rx="27.5" ry="38" transform="matrix(-1 -9.11322e-09 -9.11322e-09 1 292.5 154.775)" fill="white"/>
<path d="M303.296 152.544C303.296 152.544 296.44 162.544 283.869 162.544C271.297 162.544 263.296 152.544 263.296 152.544" stroke="black" stroke-width="5" stroke-linecap="round"/>
<path d="M320 102.775C320 102.775 316.572 107.775 310.286 107.775C304 107.775 300 102.775 300 102.775" stroke="black" stroke-width="5" stroke-linecap="round"/>
<path d="M285 102.775C285 102.775 281.401 107.775 274.801 107.775C268.201 107.775 264 102.775 264 102.775" stroke="black" stroke-width="5" stroke-linecap="round"/>
<path d="M137 261.775H54L38 214.775H154L137 261.775Z" fill="#3A5DCC"/>
<circle cx="92.5" cy="235.5" r="4.5" fill="#6FA5F3"/>
<circle cx="100.5" cy="235.5" r="4.5" fill="#6FA5F3"/>
<circle cx="96.5" cy="242.5" r="5.5" fill="#6FA5F3"/>
<rect x="54" y="261.775" width="83" height="7" fill="#6FA5F3"/>
<mask id="path-30-inside-1_296_11" fill="white">
<path d="M280.292 25.9731C282.051 23.834 284.244 22.094 286.728 20.8687C289.211 19.6435 291.927 18.9612 294.694 18.8672C297.462 18.7733 300.217 19.2698 302.778 20.3237C305.339 21.3777 307.645 22.9649 309.545 24.9798C311.444 26.9946 312.893 29.3909 313.794 32.0092C314.695 34.6275 315.029 37.4077 314.772 40.1648C314.515 42.9219 313.674 45.5927 312.304 47.9995C310.935 50.4062 309.069 52.4937 306.83 54.123L301.515 46.8201C302.717 45.9454 303.719 44.8248 304.454 43.5328C305.189 42.2408 305.641 40.8071 305.779 39.327C305.917 37.8469 305.738 36.3545 305.254 34.9489C304.77 33.5434 303.993 32.257 302.973 31.1754C301.953 30.0937 300.715 29.2417 299.34 28.6759C297.966 28.1101 296.486 27.8436 295.001 27.894C293.515 27.9445 292.057 28.3107 290.724 28.9685C289.391 29.6262 288.213 30.5603 287.269 31.7086L280.292 25.9731Z"/>
</mask>
<path d="M280.292 25.9731C282.051 23.834 284.244 22.094 286.728 20.8687C289.211 19.6435 291.927 18.9612 294.694 18.8672C297.462 18.7733 300.217 19.2698 302.778 20.3237C305.339 21.3777 307.645 22.9649 309.545 24.9798C311.444 26.9946 312.893 29.3909 313.794 32.0092C314.695 34.6275 315.029 37.4077 314.772 40.1648C314.515 42.9219 313.674 45.5927 312.304 47.9995C310.935 50.4062 309.069 52.4937 306.83 54.123L301.515 46.8201C302.717 45.9454 303.719 44.8248 304.454 43.5328C305.189 42.2408 305.641 40.8071 305.779 39.327C305.917 37.8469 305.738 36.3545 305.254 34.9489C304.77 33.5434 303.993 32.257 302.973 31.1754C301.953 30.0937 300.715 29.2417 299.34 28.6759C297.966 28.1101 296.486 27.8436 295.001 27.894C293.515 27.9445 292.057 28.3107 290.724 28.9685C289.391 29.6262 288.213 30.5603 287.269 31.7086L280.292 25.9731Z" stroke="#EFD161" stroke-width="18" stroke-linejoin="round" mask="url(#path-30-inside-1_296_11)"/>
<circle cx="283.5" cy="29.5" r="4.5" fill="#EFD161"/>
<mask id="path-32-inside-2_296_11" fill="white">
<path d="M269.524 14.3473C275.198 7.44491 283.291 2.96702 292.154 1.82697C301.016 0.686917 309.979 2.97058 317.215 8.2122C324.452 13.4538 329.416 21.2585 331.095 30.0345C332.775 38.8105 331.043 47.8966 326.254 55.4397L316.959 49.538C320.246 44.3616 321.434 38.1264 320.282 32.104C319.129 26.0816 315.723 20.7257 310.757 17.1287C305.791 13.5318 299.64 11.9646 293.558 12.747C287.477 13.5293 281.923 16.6022 278.029 21.3389L269.524 14.3473Z"/>
</mask>
<path d="M269.524 14.3473C275.198 7.44491 283.291 2.96702 292.154 1.82697C301.016 0.686917 309.979 2.97058 317.215 8.2122C324.452 13.4538 329.416 21.2585 331.095 30.0345C332.775 38.8105 331.043 47.8966 326.254 55.4397L316.959 49.538C320.246 44.3616 321.434 38.1264 320.282 32.104C319.129 26.0816 315.723 20.7257 310.757 17.1287C305.791 13.5318 299.64 11.9646 293.558 12.747C287.477 13.5293 281.923 16.6022 278.029 21.3389L269.524 14.3473Z" stroke="#EFD161" stroke-width="18" stroke-linejoin="round" mask="url(#path-32-inside-2_296_11)"/>
<circle cx="273.5" cy="18.5" r="5.5" fill="#EFD161"/>
</svg>
