<svg width="168" height="200" viewBox="0 0 168 200" fill="none" xmlns="http://www.w3.org/2000/svg">
<circle cx="83.6829" cy="83.5968" r="83.5969" transform="rotate(180 83.6829 83.5968)" fill="#F4E07C"/>
<path d="M4.56384e-05 83.8002C4.13251e-05 37.4919 37.637 0.202734 84.6832 0.202729C94.4312 0.202728 18.663 -2.69241 18.663 76.1736C18.663 155.04 129.006 167.193 83.1378 167.193C37.2694 167.193 4.99516e-05 130.108 4.56384e-05 83.8002Z" fill="#EFD161"/>
<ellipse rx="15.1995" ry="20.9898" transform="matrix(1 -7.83096e-08 -7.83096e-08 -1 70.2926 121.994)" fill="white"/>
<ellipse rx="15.9233" ry="20.9898" transform="matrix(1 -7.83096e-08 -7.83096e-08 -1 97.0725 121.994)" fill="white"/>
<ellipse rx="19.9042" ry="27.5039" transform="matrix(1 -7.83096e-08 -7.83096e-08 -1 83.6825 87.9753)" fill="white"/>
<path d="M76.8064 83.4702C76.8064 83.4702 79.2875 79.8513 83.8371 79.8513C88.3866 79.8513 91.2821 83.4702 91.2821 83.4702" stroke="black" stroke-width="5" stroke-linecap="round"/>
<path d="M89.1108 125.612C89.1108 125.612 91.716 121.993 96.493 121.993C101.27 121.993 104.31 125.612 104.31 125.612" stroke="black" stroke-width="5" stroke-linecap="round"/>
<path d="M62.3306 125.612C62.3306 125.612 64.9358 121.993 69.7128 121.993C74.4898 121.993 77.5301 125.612 77.5301 125.612" stroke="black" stroke-width="5" stroke-linecap="round"/>
<mask id="path-9-inside-1_95_1507" fill="white">
<path d="M102.928 181.201C101.655 182.749 100.068 184.009 98.2702 184.896C96.4729 185.782 94.5073 186.276 92.5042 186.344C90.5012 186.412 88.5066 186.053 86.6532 185.29C84.7999 184.527 83.1302 183.378 81.7554 181.92C80.3806 180.462 79.3322 178.727 78.6799 176.832C78.0275 174.937 77.7863 172.925 77.9722 170.929C78.1581 168.934 78.7669 167.001 79.7581 165.259C80.7492 163.517 82.1 162.006 83.7205 160.826L87.5671 166.112C86.6972 166.745 85.972 167.556 85.44 168.492C84.9079 169.427 84.5811 170.464 84.4813 171.536C84.3815 172.607 84.511 173.687 84.8611 174.704C85.2113 175.722 85.7742 176.653 86.5122 177.436C87.2502 178.219 88.1465 178.835 89.1414 179.245C90.1363 179.654 91.2071 179.847 92.2823 179.811C93.3576 179.774 94.4128 179.509 95.3777 179.033C96.3425 178.557 97.1949 177.881 97.8781 177.05L102.928 181.201Z"/>
</mask>
<path d="M102.928 181.201C101.655 182.749 100.068 184.009 98.2702 184.896C96.4729 185.782 94.5073 186.276 92.5042 186.344C90.5012 186.412 88.5066 186.053 86.6532 185.29C84.7999 184.527 83.1302 183.378 81.7554 181.92C80.3806 180.462 79.3322 178.727 78.6799 176.832C78.0275 174.937 77.7863 172.925 77.9722 170.929C78.1581 168.934 78.7669 167.001 79.7581 165.259C80.7492 163.517 82.1 162.006 83.7205 160.826L87.5671 166.112C86.6972 166.745 85.972 167.556 85.44 168.492C84.9079 169.427 84.5811 170.464 84.4813 171.536C84.3815 172.607 84.511 173.687 84.8611 174.704C85.2113 175.722 85.7742 176.653 86.5122 177.436C87.2502 178.219 88.1465 178.835 89.1414 179.245C90.1363 179.654 91.2071 179.847 92.2823 179.811C93.3576 179.774 94.4128 179.509 95.3777 179.033C96.3425 178.557 97.1949 177.881 97.8781 177.05L102.928 181.201Z" stroke="#EFD161" stroke-width="18" stroke-linejoin="round" mask="url(#path-9-inside-1_95_1507)"/>
<circle cx="100.606" cy="178.648" r="3.25704" transform="rotate(180 100.606 178.648)" fill="#EFD161"/>
<mask id="path-11-inside-2_95_1507" fill="white">
<path d="M110.722 189.615C106.616 194.611 100.758 197.852 94.3433 198.678C87.929 199.503 81.4415 197.85 76.2039 194.056C70.9664 190.262 67.3734 184.613 66.1578 178.261C64.9422 171.909 66.1955 165.333 69.6621 159.873L76.3894 164.145C74.0105 167.892 73.1504 172.404 73.9846 176.763C74.8188 181.122 77.2845 184.999 80.8787 187.602C84.4728 190.206 88.9248 191.34 93.3266 190.774C97.7284 190.208 101.748 187.983 104.567 184.555L110.722 189.615Z"/>
</mask>
<path d="M110.722 189.615C106.616 194.611 100.758 197.852 94.3433 198.678C87.929 199.503 81.4415 197.85 76.2039 194.056C70.9664 190.262 67.3734 184.613 66.1578 178.261C64.9422 171.909 66.1955 165.333 69.6621 159.873L76.3894 164.145C74.0105 167.892 73.1504 172.404 73.9846 176.763C74.8188 181.122 77.2845 184.999 80.8787 187.602C84.4728 190.206 88.9248 191.34 93.3266 190.774C97.7284 190.208 101.748 187.983 104.567 184.555L110.722 189.615Z" stroke="#EFD161" stroke-width="18" stroke-linejoin="round" mask="url(#path-11-inside-2_95_1507)"/>
<circle cx="107.844" cy="186.61" r="3.98083" transform="rotate(180 107.844 186.61)" fill="#EFD161"/>
</svg>
