<?xml version="1.0" encoding="utf-8"?>
<!-- Generator: Adobe Illustrator 25.4.1, SVG Export Plug-In . SVG Version: 6.00 Build 0)  -->
<svg version="1.1" id="Слой_1" xmlns="http://www.w3.org/2000/svg" xmlns:xlink="http://www.w3.org/1999/xlink" x="0px" y="0px"
	 viewBox="0 0 22 14" enable-background="new 0 0 22 14" xml:space="preserve">
<path d="M14,14c-0.3,0-0.5-0.1-0.7-0.3c-0.4-0.4-0.4-1,0-1.4L17.6,8H1C0.4,8,0,7.6,0,7s0.4-1,1-1h16.6l-4.3-4.3
	c-0.4-0.4-0.4-1,0-1.4s1-0.4,1.4,0l6,6c0.1,0.1,0.2,0.2,0.2,0.3C21,6.7,21,6.9,21,7l0,0l0,0c0,0,0,0,0,0l0,0l0,0c0,0,0,0,0,0l0,0
	l0,0c0,0,0,0,0,0l0,0c0,0.1,0,0.3-0.1,0.4l0,0v0h0c0,0,0,0,0,0c0,0,0,0,0,0v0c0,0,0,0,0,0l0,0c0,0,0,0,0,0c0,0.1-0.1,0.2-0.2,0.3
	l0,0c0,0,0,0,0,0l0,0c0,0,0,0,0,0c0,0,0,0,0,0c0,0,0,0,0,0c0,0,0,0,0,0c0,0,0,0,0,0l-6,6C14.5,13.9,14.3,14,14,14z"/>
</svg>
